<?xml version="1.0" encoding="UTF-8" standalone="no"?>
<!-- Created with Inkscape (http://www.inkscape.org/) -->

<svg
   width="33.903412mm"
   height="33.873627mm"
   viewBox="0 0 33.903412 33.873627"
   version="1.1"
   id="svg1"
   inkscape:version="1.3.2 (091e20e, 2023-11-25, custom)"
   sodipodi:docname="Costelazioni 7.svg"
   xml:space="preserve"
   xmlns:inkscape="http://www.inkscape.org/namespaces/inkscape"
   xmlns:sodipodi="http://sodipodi.sourceforge.net/DTD/sodipodi-0.dtd"
   xmlns="http://www.w3.org/2000/svg"
   xmlns:svg="http://www.w3.org/2000/svg"><sodipodi:namedview
     id="namedview1"
     pagecolor="#ffffff"
     bordercolor="#000000"
     borderopacity="0.25"
     inkscape:showpageshadow="2"
     inkscape:pageopacity="0.0"
     inkscape:pagecheckerboard="0"
     inkscape:deskcolor="#d1d1d1"
     inkscape:document-units="mm"
     inkscape:zoom="0.94163159"
     inkscape:cx="396.65194"
     inkscape:cy="561.25984"
     inkscape:window-width="2560"
     inkscape:window-height="1334"
     inkscape:window-x="-11"
     inkscape:window-y="-11"
     inkscape:window-maximized="1"
     inkscape:current-layer="layer1" /><defs
     id="defs1" /><g
     inkscape:label="Livello 1"
     inkscape:groupmode="layer"
     id="layer1"
     transform="translate(-104.61403,-80.492284)"><path
       d="m 120.82061,114.20539 c -0.10311,-0.12424 -0.10518,-0.21756 -0.01,-0.42754 0.18993,-0.41686 0.06,-0.66035 -0.35246,-0.66035 -0.19279,0 -0.3777,-0.044 -0.41093,-0.0977 -0.0347,-0.0561 -0.19168,-0.0229 -0.36857,0.0779 -0.2796,0.15938 -0.33478,0.16091 -0.59511,0.0166 -0.35995,-0.19959 -0.45639,-0.8376 -0.17382,-1.14984 0.21319,-0.23557 0.72312,-0.26194 0.80761,-0.0418 0.0673,0.17535 0.43548,0.21117 0.53389,0.052 0.0353,-0.0571 0.17834,-0.10391 0.31783,-0.10391 0.18436,0 0.25363,-0.0568 0.25363,-0.2078 0,-0.18902 -0.0693,-0.2078 -0.76628,-0.2078 -1.01197,0 -1.39548,-0.0845 -1.47153,-0.32408 -0.04,-0.12606 -0.16096,-0.19654 -0.34076,-0.19857 -0.56143,-0.006 -3.4328,-0.67275 -3.59838,-0.83516 -0.0543,-0.0533 -0.16049,-0.0968 -0.23601,-0.0968 -0.2301,0 -1.98114,-0.71421 -2.97587,-1.21379 -1.18775,-0.59652 -2.04224,-1.1309 -3.28516,-2.05446 -1.1259,-0.83661 -3.53465,-3.16907 -3.53465,-3.4227 0,-0.0931 0.44777,-0.65938 0.99506,-1.25829 1.06416,-1.16458 1.15653,-1.20415 1.52378,-0.65283 0.253,0.37982 1.42179,1.55754 1.50739,1.51892 0.0428,-0.0193 0.25388,-0.10298 0.46899,-0.1859 0.36409,-0.14035 0.49686,-0.33613 1.92218,-2.834424 0.84209,-1.47601 1.75184,-3.06776 2.02167,-3.53722 0.28958,-0.50382 0.46765,-0.92807 0.43458,-1.03539 -0.0356,-0.11556 -9.2e-4,-0.18183 0.0952,-0.18183 0.12082,0 1.00567,-1.23766 1.00567,-1.40665 0,-0.0242 0.17413,-0.31369 0.38696,-0.64339 0.51977,-0.80519 0.85952,-1.54765 0.86145,-1.88256 0.001,-0.21598 0.0233,-0.24178 0.10231,-0.11956 0.0857,0.13262 0.10096,0.12827 0.10231,-0.0293 8.6e-4,-0.1018 -0.0584,-0.20812 -0.1318,-0.23627 -0.0734,-0.0282 -0.14366,-0.17513 -0.1562,-0.32662 -0.0125,-0.15148 -0.0928,-0.35275 -0.1783,-0.44726 -0.0855,-0.0945 -0.15552,-0.26211 -0.15552,-0.37245 0,-0.26044 -0.39535,-0.5202 -0.55253,-0.36302 -0.49337,0.49337 -1.06332,-0.5018 -0.63644,-1.11127 0.18142,-0.25901 0.37047,-0.28963 0.66244,-0.10729 0.42062,0.26268 0.66242,-0.33727 0.67573,-1.67658 0.006,-0.61847 0.0285,-0.68215 0.29149,-0.83121 0.37285,-0.2113 0.63831,-0.0539 0.68364,0.40523 0.0188,0.19031 -0.009,0.31176 -0.0635,0.27806 -0.0595,-0.0368 -0.0615,0.10946 -0.005,0.37893 0.19717,0.94443 0.21985,1.21804 0.10094,1.21804 -0.0647,0 -0.11829,-0.12858 -0.11917,-0.28573 -10e-4,-0.20589 -0.0272,-0.24521 -0.0934,-0.14071 -0.1343,0.21211 -0.42649,0.0565 -0.41245,-0.21968 0.009,-0.18489 0.0228,-0.19577 0.0607,-0.0494 0.0595,0.22951 0.2943,0.1743 0.28227,-0.0664 -0.005,-0.0952 -0.0179,-0.34851 -0.0293,-0.5628 -0.0211,-0.39875 -0.26699,-0.84664 -0.39469,-0.71894 -0.0391,0.0391 -0.0771,0.40975 -0.0843,0.82362 -0.009,0.52761 -0.0804,0.90001 -0.23797,1.24604 -0.19788,0.43456 -0.26329,0.49353 -0.54736,0.49353 -0.27517,0 -0.31773,0.0344 -0.28932,0.23378 0.0257,0.18008 0.0957,0.22972 0.30505,0.21612 0.23316,-0.0152 0.29121,0.0439 0.40888,0.4156 0.0754,0.2383 0.22195,0.55738 0.32559,0.70906 0.10365,0.15169 0.18845,0.30621 0.18845,0.34338 0,0.0372 0.0882,0.26374 0.19603,0.50347 0.25822,0.57413 0.38536,1.16175 0.23068,1.06616 -0.0633,-0.0391 -0.11501,-0.16756 -0.11501,-0.28547 0,-0.29504 -0.24294,-0.089 -0.4245,0.35997 -0.0743,0.18383 -0.16566,0.35762 -0.20294,0.38619 -0.0373,0.0286 -0.13345,0.17766 -0.21371,0.33131 -0.0803,0.15365 -0.41476,0.75028 -0.74335,1.32584 -0.61382,1.07519 -0.67323,1.2073 -0.49274,1.09575 0.1379,-0.0852 -0.0849,0.42319 -0.38635,0.8818 -0.32009,0.48689 -0.30367,0.2663 0.0192,-0.2579 0.27689,-0.44956 0.32779,-0.6241 0.14996,-0.51419 -0.0619,0.0382 -0.20413,0.26309 -0.31613,0.49966 -0.112,0.23657 -0.30684,0.60228 -0.43298,0.81268 -0.24687,0.41175 -2.23752,3.864394 -2.67998,4.648224 -0.14779,0.26181 -0.37084,0.63966 -0.49567,0.83967 -0.12483,0.20001 -0.28301,0.49223 -0.35151,0.64938 -0.0685,0.15716 -0.18443,0.28574 -0.25762,0.28574 -0.169,0 -0.17039,0.12865 -0.003,0.29707 0.10413,0.10491 0.0938,0.11712 -0.052,0.0616 -0.10001,-0.038 -0.18183,-0.11097 -0.18183,-0.16201 0,-0.0511 -0.0701,-0.0928 -0.15585,-0.0928 -0.0857,0 -0.15585,0.0432 -0.15585,0.096 0,0.1325 1.34557,1.24919 1.65085,1.37005 0.30249,0.11975 0.39839,0.0484 0.22146,-0.1648 -0.10644,-0.12824 -0.10431,-0.19122 0.0112,-0.33112 0.11047,-0.13383 0.11352,-0.18253 0.0135,-0.21618 -0.0994,-0.0334 -0.10162,-0.0947 -0.01,-0.26652 0.11685,-0.21833 0.12109,-0.21871 0.19967,-0.0176 0.0735,0.1882 0.0809,0.18939 0.0876,0.014 0.004,-0.10528 0.10081,-0.31029 0.2151,-0.45559 0.1143,-0.1453 0.20781,-0.32801 0.20781,-0.40602 0,-0.078 0.0976,-0.2394 0.2168,-0.35865 0.1412,-0.14119 0.19706,-0.29549 0.16018,-0.44244 -0.0311,-0.1241 -0.009,-0.29538 0.0498,-0.38063 0.0797,-0.11604 0.0884,-0.0897 0.0347,0.10477 l -0.0716,0.25975 0.20087,-0.25975 c 0.24748,-0.32004 0.65734,-1.0252 0.65265,-1.12288 -0.006,-0.13193 -0.41214,0.41632 -0.41214,0.5568 0,0.076 -0.0491,0.16859 -0.10924,0.20572 -0.15179,0.0938 0.16933,-0.6497 0.36521,-0.84557 0.12218,-0.12218 0.16134,-0.12742 0.16693,-0.0223 0.004,0.0755 0.0475,0.0438 0.0966,-0.0705 0.12274,-0.285634 0.12274,-0.449684 0,-0.25976 -0.0554,0.0857 -0.10143,0.10782 -0.10231,0.0491 -0.003,-0.193604 0.33372,-0.594634 0.40385,-0.481154 0.0369,0.0598 0.38319,-0.45172 0.76947,-1.13658 0.38629,-0.68486 0.67485,-1.28967 0.64125,-1.34403 -0.0336,-0.0544 -0.01,-0.18103 0.0534,-0.28148 0.0966,-0.15416 0.10455,-0.14213 0.0508,0.0771 -0.0843,0.34378 0.0238,0.19258 0.65389,-0.9142 0.26998,-0.47424 0.58439,-1.019 0.69868,-1.21058 0.64745,-1.0853 0.7641,-1.32923 0.7126,-1.49009 -0.0429,-0.13402 -0.0325,-0.14356 0.0424,-0.039 0.0798,0.11145 0.11273,0.10346 0.1681,-0.0409 0.0379,-0.0987 0.0444,-0.20392 0.0145,-0.23383 -0.0299,-0.0299 -0.0544,-0.0126 -0.0544,0.0386 0,0.0512 -0.21128,-0.13715 -0.46951,-0.41841 -0.25823,-0.28127 -0.45402,-0.55786 -0.43509,-0.61465 0.0725,-0.21738 0.23567,-0.15644 0.36529,0.13639 0.0742,0.16772 0.29391,0.39872 0.48816,0.51333 l 0.35318,0.20838 0.41212,-0.69498 c 0.22666,-0.38224 0.89511,-1.52811 1.48543,-2.54638 0.59032,-1.01828 1.14345,-1.96991 1.22917,-2.11475 0.14296,-0.24155 0.13948,-0.27318 -0.042,-0.38247 -0.10883,-0.0655 -0.35345,-0.25183 -0.54361,-0.41399 l -0.34575,-0.29485 -0.22256,0.37722 c -0.3009,0.50999 -0.37066,0.39328 -0.0917,-0.15347 0.14184,-0.27802 0.18726,-0.47426 0.12433,-0.53719 -0.0629,-0.0629 -0.12337,-0.002 -0.16547,0.16508 -0.0365,0.14533 -0.2054,0.48772 -0.37539,0.76089 -0.58599,0.94167 -0.57807,0.90144 -0.32844,1.66846 0.12502,0.38414 0.22291,0.79196 0.21755,0.90624 -0.005,0.1143 -0.11367,-0.0961 -0.24067,-0.46755 -0.32535,-0.95159 -0.47274,-1.1546 -0.81296,-1.11975 -0.15461,0.0158 -0.2715,-0.018 -0.25975,-0.0751 0.0117,-0.0571 0.0564,-0.0922 0.0993,-0.0779 0.11894,0.0396 0.0871,-0.10907 -0.0667,-0.3117 -0.17989,-0.23698 -0.27097,-0.2303 -0.27097,0.0198 0,0.11092 -0.0464,0.23035 -0.10314,0.26541 -0.0652,0.0403 -0.0848,-0.11742 -0.0533,-0.42876 0.0369,-0.36442 0.005,-0.5417 -0.12134,-0.68166 -0.0941,-0.10403 -0.14143,-0.2189 -0.10506,-0.25527 0.10115,-0.10115 0.37825,0.16977 0.53868,0.52668 0.1876,0.41735 0.64889,0.92007 0.77356,0.84302 0.0957,-0.0591 0.92057,-1.48552 1.06684,-1.84485 0.0409,-0.10061 -0.0168,-0.4664 -0.12926,-0.81834 -0.14014,-0.43868 -0.18278,-0.77 -0.13725,-1.0664 0.0921,-0.59927 0.51494,-1.4031 0.95994,-1.8247 0.23817,-0.22564 0.37543,-0.45154 0.37543,-0.61789 0,-0.19396 0.0676,-0.27827 0.25975,-0.32394 0.17443,-0.0415 0.27156,-0.14566 0.29569,-0.31723 0.0599,-0.42614 0.20982,-0.51524 0.86678,-0.51524 0.7556,0 1.01946,0.12572 1.01946,0.48573 0,0.14884 0.0818,0.33333 0.18183,0.40998 0.15054,0.11537 0.15707,0.15565 0.0379,0.23406 -0.11414,0.0751 -0.0926,0.12105 0.1039,0.22206 0.45206,0.23232 1.03894,0.87478 1.29989,1.42299 0.30777,0.64657 0.34855,1.55974 0.0966,2.16278 -0.15797,0.37807 -0.15535,0.42334 0.0497,0.85952 0.11903,0.25322 0.42411,0.80254 0.67794,1.22068 0.25383,0.41815 0.46151,0.8053 0.46151,0.86033 0,0.1151 0.24793,0.22619 0.50485,0.22619 0.0969,0 0.33602,0.14601 0.53141,0.32447 0.32318,0.29518 0.43329,0.32935 1.21953,0.3784 0.74692,0.0466 0.89356,0.0274 1.07994,-0.14126 0.2662,-0.24091 0.81428,-0.28239 1.04243,-0.0789 0.11844,0.10564 0.35509,0.14219 0.77865,0.12025 0.58563,-0.0303 0.61057,-0.0433 0.66327,-0.34321 0.0309,-0.17604 0.0866,-0.26124 0.12801,-0.19576 0.0403,0.0638 0.19125,0.0934 0.33548,0.0658 0.14508,-0.0277 0.26223,-0.002 0.26223,0.0585 0,0.23869 0.33705,0.44608 0.62293,0.38329 0.51309,-0.11269 0.81711,0.0347 0.93311,0.45226 0.15826,0.56978 0.13024,1.64181 -0.0521,1.99448 -0.14927,0.28865 -0.19554,0.30654 -0.79255,0.30654 h -0.63401 l 0.0689,0.43097 c 0.0574,0.35908 0.0306,0.47173 -0.16069,0.67536 -0.12628,0.13442 -0.31376,0.2444 -0.41662,0.2444 -0.24794,0 -0.5238,-0.55136 -0.48392,-0.96721 0.0297,-0.3102 0.008,-0.33378 -0.33094,-0.36599 -0.19951,-0.019 -0.39751,-0.0891 -0.43999,-0.15585 -0.0573,-0.0901 -0.0776,-0.0879 -0.0788,0.008 -0.002,0.1825 -0.31374,0.16169 -0.53167,-0.0355 -0.16867,-0.15265 -0.17882,-0.15027 -0.13145,0.0309 0.0354,0.13522 -0.0312,0.24045 -0.21402,0.33829 -0.2335,0.12496 -0.29018,0.11954 -0.47221,-0.0452 -0.17019,-0.15401 -0.23509,-0.16378 -0.36604,-0.0551 -0.0875,0.0727 -0.14687,0.20769 -0.13183,0.30007 0.0173,0.10656 -0.0358,0.15757 -0.1454,0.13952 -0.20133,-0.0331 -0.15287,0.31199 0.0697,0.49676 0.10564,0.0877 0.14968,-3.1e-4 0.20633,-0.4122 0.0818,-0.59447 0.26033,-0.70758 0.26033,-0.1649 0,0.76921 -0.45859,1.1766 -0.70808,0.62903 -0.1592,-0.34943 -0.87876,-1.30582 -0.93793,-1.24665 -0.026,0.026 0.0765,0.22598 0.2279,0.44438 0.15135,0.21841 0.27519,0.44969 0.27519,0.51397 0,0.0643 0.0757,0.19257 0.16822,0.28509 0.0925,0.0925 0.14267,0.19377 0.11145,0.225 -0.0312,0.0312 -0.23537,-0.21647 -0.45366,-0.55044 -0.41496,-0.63486 -0.53676,-0.76423 -0.70917,-0.75325 -0.0571,0.004 -0.0435,0.0309 0.0303,0.0604 0.087,0.0349 0.10004,0.096 0.0372,0.17362 -0.0534,0.0659 -0.12005,0.21328 -0.14814,0.32758 -0.0335,0.13641 -0.0552,0.0918 -0.0631,-0.12988 -0.0108,-0.30326 -0.0438,-0.33768 -0.32376,-0.33768 -0.17317,0 -0.3117,0.0554 -0.3117,0.12468 0,0.097 -0.0277,0.097 -0.12468,0 -0.39865,-0.39864 -0.18696,0.15777 0.38841,1.02095 0.17042,0.25566 0.46797,0.76875 0.66122,1.1402 0.19325,0.37145 0.40915,0.7455 0.47978,0.83121 0.0706,0.0857 0.31487,0.48315 0.54277,0.88316 0.22789,0.40002 0.62398,1.07798 0.88019,1.50657 0.25621,0.4286 0.80682,1.38709 1.22357,2.12999 0.41675,0.742894 0.8154,1.420854 0.88588,1.506574 0.0705,0.0857 0.28825,0.45976 0.48392,0.83121 0.19567,0.37145 0.43085,0.79225 0.52261,0.93512 0.0918,0.14286 0.26479,0.44608 0.38449,0.67382 0.1197,0.22773 0.21735,0.34462 0.21699,0.25975 -3.5e-4,-0.0849 -0.0677,-0.28289 -0.14969,-0.44004 -0.082,-0.15716 -0.11074,-0.28573 -0.0639,-0.28573 0.16388,0 0.35926,0.63731 0.25052,0.81716 -0.0565,0.0935 -0.0761,0.27336 -0.0435,0.39982 0.0591,0.22944 0.0602,0.22926 0.52676,-0.0836 0.25715,-0.17242 0.66497,-0.50642 0.90625,-0.74225 0.33859,-0.33093 0.4125,-0.46034 0.3239,-0.56711 -0.0864,-0.10408 -0.14984,-0.10925 -0.25629,-0.0209 -0.10956,0.0909 -0.18771,0.0619 -0.34641,-0.1286 -0.11271,-0.13531 -0.20649,-0.28793 -0.20839,-0.33916 -0.002,-0.0512 -0.1617,-0.33176 -0.35512,-0.62341 -0.19341,-0.29164 -0.42903,-0.69391 -0.5236,-0.89392 -0.20909,-0.44223 -0.38405,-0.74951 -1.30145,-2.285834 -1.79135,-2.99988 -2.90193,-4.97299 -2.90947,-5.1691 -0.009,-0.22076 0.18487,-0.14307 0.25859,0.1039 0.0384,0.12858 0.3143,0.65458 0.61315,1.16889 0.29885,0.51432 1.12782,1.94037 1.84216,3.169 0.71434,1.22863 1.62216,2.806244 2.01737,3.505794 0.59432,1.05198 0.76017,1.27206 0.95918,1.27279 0.13233,4.9e-4 0.32645,0.0468 0.43136,0.10298 0.15896,0.0851 0.29641,-0.0109 0.8247,-0.5756 0.34867,-0.37273 0.70931,-0.79272 0.80143,-0.9333 0.0921,-0.14059 0.23724,-0.25561 0.32251,-0.25561 0.13749,0 1.93654,1.79929 2.1314,2.13169 0.17022,0.29036 -2.94678,3.22702 -4.55179,4.28843 -0.0613,0.0406 -0.14282,0.15854 -0.18112,0.2622 -0.039,0.10553 -0.15045,0.17479 -0.25326,0.15737 -0.10099,-0.0171 -0.39354,0.0911 -0.65009,0.24051 -2.1628,1.25939 -5.17008,2.36889 -7.31204,2.69771 -0.63089,0.0968 -0.83036,0.16811 -0.86743,0.30987 -0.0694,0.26538 -0.28122,0.3166 -1.29001,0.31198 -0.62891,-0.003 -0.93341,0.0377 -1.01433,0.1352 -0.17011,0.20497 0.0466,0.33797 0.69218,0.42476 0.44634,0.06 0.54548,0.0453 0.54548,-0.0811 0,-0.085 0.074,-0.18287 0.16435,-0.21755 0.52436,-0.20122 0.87467,0.13348 0.87467,0.83567 0,0.34823 -0.0556,0.4806 -0.27377,0.65224 -0.349,0.27453 -0.41219,0.27067 -0.70274,-0.0428 l -0.23928,-0.25818 -0.63892,0.21576 c -0.67089,0.22657 -0.73781,0.297 -0.48308,0.5084 0.21715,0.18022 0.19449,0.49152 -0.0451,0.61975 -0.31683,0.16957 -1.30955,0.13474 -1.464,-0.0514 z m 1.1034,-0.11899 c 0.16957,-0.0651 0.16831,-0.0758 -0.0175,-0.14855 -0.17511,-0.0686 -0.17742,-0.0793 -0.0184,-0.0857 0.10001,-0.004 0.18183,-0.0509 0.18183,-0.10426 0,-0.0533 -0.14093,-0.093 -0.31317,-0.0881 -0.17224,0.005 -0.34368,-0.0216 -0.38097,-0.0589 -0.0373,-0.0373 0.0686,-0.0685 0.23524,-0.0694 0.23385,-0.001 0.26746,-0.0246 0.1472,-0.10232 -0.19496,-0.12599 -0.62341,-0.13491 -0.62341,-0.013 0,0.05 0.0292,0.23703 0.0649,0.4156 0.0672,0.33581 0.29959,0.41752 0.7242,0.25458 z m -0.78914,-0.13769 c 0,-0.0571 -0.0468,-0.10389 -0.1039,-0.10389 -0.0571,0 -0.1039,0.0468 -0.1039,0.10389 0,0.0571 0.0468,0.1039 0.1039,0.1039 0.0571,0 0.1039,-0.0468 0.1039,-0.1039 z m 0.80501,-0.95973 c -0.0832,-0.0568 -0.0301,-0.0777 0.14822,-0.0583 0.27781,0.0302 0.8131,-0.32513 0.8131,-0.53976 0,-0.0575 -0.23378,-0.10458 -0.51951,-0.10458 -0.28573,0 -0.51951,-0.0468 -0.51951,-0.10391 0,-0.0571 0.0701,-0.1039 0.15585,-0.1039 0.0857,0 0.15585,-0.0468 0.15585,-0.1039 0,-0.16085 -0.96215,-0.11613 -1.18875,0.0553 -0.11092,0.0839 -0.28626,0.15254 -0.38963,0.15254 -0.10912,0 -0.18861,0.0763 -0.18953,0.18183 -9.2e-4,0.10268 -0.0348,0.1366 -0.0779,0.0779 -0.042,-0.0571 -0.22829,-0.11858 -0.41402,-0.13652 -0.30505,-0.0295 -0.33768,-0.006 -0.33768,0.24572 0,0.27303 0.005,0.2751 0.25976,0.10816 0.24084,-0.15781 0.25975,-0.15774 0.25975,0.001 0,0.13484 0.0662,0.15798 0.3117,0.10889 0.22774,-0.0455 0.31171,-0.0231 0.31171,0.0833 0,0.17132 0.18559,0.21952 0.85696,0.22257 0.30344,10e-4 0.44341,-0.0318 0.36366,-0.0863 z m -0.82449,-0.0463 c 0.075,-0.03 0.16462,-0.0263 0.19914,0.008 0.0345,0.0345 -0.0268,0.0591 -0.13637,0.0546 -0.12104,-0.005 -0.14566,-0.0296 -0.0628,-0.0628 z m -0.0844,-0.74725 c 0,-0.05 0.11689,-0.0909 0.25975,-0.0909 0.14287,0 0.25976,0.0409 0.25976,0.0909 0,0.05 -0.11689,0.0909 -0.25976,0.0909 -0.14286,0 -0.25975,-0.0409 -0.25975,-0.0909 z m 3.04612,0.75428 c -0.0512,-0.13345 -0.0186,-0.15331 0.15911,-0.0969 0.20272,0.0643 0.22352,0.0332 0.22352,-0.33498 0,-0.33217 -0.0472,-0.42744 -0.25975,-0.52429 l -0.25976,-0.11835 v 0.62118 c 0,0.34165 0.0453,0.62118 0.10064,0.62118 0.0553,0 0.0717,-0.0755 0.0362,-0.16784 z m -4.65582,-0.45589 c 4.4e-4,-0.29614 -0.0464,-0.51918 -0.1091,-0.51918 -0.35722,0 -0.49879,0.7396 -0.1774,0.92679 0.27693,0.1613 0.28567,0.14885 0.2865,-0.40761 z m 4.25069,0.14506 c 0.32377,-0.12424 0.18379,-0.3538 -0.1991,-0.3265 -0.2669,0.019 -0.3635,0.0742 -0.36365,0.20774 -2.2e-4,0.18596 0.25001,0.23877 0.56275,0.11876 z m -1.78183,-1.0441 c -0.0703,-0.0285 -0.21061,-0.0302 -0.3117,-0.004 -0.10109,0.0263 -0.0435,0.0496 0.1279,0.0517 0.17144,0.002 0.25415,-0.0195 0.1838,-0.0479 z m 2.56959,-0.91681 c 0,-0.31314 -0.0702,-0.74563 -0.15595,-0.96109 -0.0858,-0.21545 -0.21542,-0.71902 -0.28812,-1.11904 l -0.13218,-0.72731 -0.90674,0.0142 c -0.49871,0.008 -0.90675,-0.0272 -0.90675,-0.0779 0,-0.0507 0.25782,-0.0921 0.57294,-0.0921 h 0.57293 l -0.27391,-0.4139 c -0.15065,-0.22765 -0.31172,-0.39054 -0.35795,-0.36197 -0.0462,0.0286 -0.11038,0.009 -0.14257,-0.0428 -0.0322,-0.0521 0.0113,-0.12152 0.0967,-0.15429 0.0854,-0.0328 0.15525,-0.18069 0.15525,-0.32872 0,-0.14804 -0.0415,-0.24353 -0.0921,-0.21221 -0.0507,0.0313 -0.13747,-0.001 -0.19288,-0.0718 -0.14637,-0.18701 -0.17929,-12.752764 -0.0334,-12.752764 0.0759,0 0.1109,1.05108 0.11152,3.35082 5e-4,1.84295 0.0306,3.598254 0.0669,3.900684 0.0884,0.73603 0.31392,0.86769 0.86341,0.50405 0.58366,-0.38625 1.37496,-1.231694 1.6338,-1.745604 0.51538,-1.02324 0.81813,-1.81298 0.77741,-2.02789 -0.0427,-0.22548 0.20298,-0.26712 0.26125,-0.0442 0.0314,0.12005 0.0984,0.21826 0.14886,0.21826 0.0505,0 0.0918,0.0701 0.0918,0.15585 0,0.38589 0.21733,0.0937 0.4057,-0.54548 0.31941,-1.08374 0.33312,-1.84397 0.0445,-2.46766 l -0.24039,-0.51951 -0.009,0.98707 c -0.006,0.6834 -0.068,1.14688 -0.20076,1.50657 -0.2033,0.55095 -0.28083,0.35283 -0.10191,-0.26044 0.0582,-0.19963 0.10711,-0.87419 0.10859,-1.49902 l 0.003,-1.13604 -0.51365,-0.83808 -0.51365,-0.83809 -0.47224,0.0349 c -0.87416,0.0645 -0.89957,0.0341 -0.89957,-1.07409 0,-0.99106 -0.12407,-1.57035 -0.31151,-1.4545 -0.13681,0.0845 -0.13699,1.61059 -2e-4,1.61059 0.0571,0 0.0985,0.15196 0.0919,0.33768 -0.008,0.21865 -0.0297,0.26443 -0.062,0.12988 -0.0275,-0.1143 -0.0922,-0.25223 -0.1438,-0.30651 -0.0516,-0.0543 -0.0938,-0.51285 -0.0938,-1.01902 v -0.9203 l -0.44158,0.032 -0.44158,0.032 0.0236,1.02091 c 0.0178,0.76856 -0.008,1.01048 -0.1039,0.9787 -0.0835,-0.0276 -0.13795,-0.33652 -0.15774,-0.89453 -0.0181,-0.51018 -0.0702,-0.82761 -0.12988,-0.79074 -0.16125,0.0997 -0.11395,-0.12117 0.0562,-0.26239 0.17153,-0.14235 0.20366,-0.94572 0.0519,-1.29877 -0.0491,-0.11429 -0.0926,-0.15937 -0.0966,-0.10019 -0.004,0.0592 -0.10081,0.10762 -0.21511,0.10762 -0.25526,0 -0.26078,-0.0482 -0.026,-0.22645 0.17317,-0.13145 0.17317,-0.13818 0,-0.14133 -0.11111,-0.002 -0.18182,-0.0837 -0.18182,-0.20994 0,-0.15688 -0.0626,-0.20146 -0.25976,-0.18514 -0.18541,0.0153 -0.2593,0.0819 -0.25816,0.23261 10e-4,0.17726 0.0191,0.18612 0.11071,0.0553 0.0854,-0.12193 0.0948,-0.10486 0.0432,0.0784 -0.0454,0.16131 -0.0151,0.25378 0.0971,0.29685 0.0897,0.0344 0.16301,0.1043 0.16301,0.15534 0,0.14133 -0.28714,0.11064 -0.34708,-0.0371 -0.0398,-0.0981 -0.0824,-0.0918 -0.17431,0.026 -0.10441,0.13379 -0.11334,0.13012 -0.0631,-0.026 0.0322,-0.10001 0.0234,-0.18183 -0.0195,-0.18183 -0.0429,0 -0.088,-0.12107 -0.10025,-0.26904 -0.0123,-0.14796 -0.0486,-0.31161 -0.0808,-0.36365 -0.0923,-0.14931 -0.25402,-0.11031 -0.25402,0.0612 0,0.0857 0.0468,0.15586 0.1039,0.15586 0.0655,0 0.10391,0.70999 0.10391,1.92217 0,1.21219 -0.0384,1.92218 -0.10391,1.92218 -0.065,0 -0.1039,-0.63649 -0.1039,-1.70166 0,-1.3451 -0.031,-1.72736 -0.14789,-1.82438 -0.12099,-0.10042 -0.19978,-0.0319 -0.43318,0.3769 -0.15691,0.27481 -0.34221,0.56978 -0.41177,0.6555 -0.0696,0.0857 -0.26337,0.41301 -0.43068,0.72731 -0.16732,0.31431 -0.59579,1.0624 -0.95214,1.66243 -0.35636,0.60003 -0.69233,1.17279 -0.7466,1.27279 -0.17508,0.3226 -0.30513,0.53889 -0.5154,0.85719 -0.16702,0.25282 -0.20599,0.48913 -0.2063,1.25097 -4e-4,0.95034 0.22501,2.11217 0.43494,2.24192 0.063,0.0389 0.0877,0.14044 0.055,0.22563 -0.0851,0.22176 0.74145,2.00059 1.2422,2.67336 0.62893,0.845004 1.41411,1.452694 1.87696,1.452694 0.19383,0 0.21291,-0.0913 0.27687,-1.32475 0.10625,-2.049384 0.047,-6.571474 -0.0861,-6.573364 -0.0615,-6.2e-4 -0.0454,-0.0436 0.0357,-0.0949 0.1148,-0.0727 0.12492,-0.17014 0.0457,-0.43999 -0.10043,-0.34191 -0.10931,-0.34623 -0.64939,-0.31675 -0.47827,0.0261 -0.54304,0.006 -0.51183,-0.15566 0.0196,-0.10206 0.11476,-0.18565 0.21135,-0.18576 0.0966,-9e-5 0.24734,-0.0937 0.335,-0.20798 0.15841,-0.20655 0.1605,-0.20637 0.34499,0.0287 0.14656,0.18672 0.21242,0.20968 0.313,0.1091 0.23921,-0.23921 0.1194,12.782714 -0.13208,14.356484 -0.0805,0.50362 -0.20858,0.72731 -0.41649,0.72731 -0.0721,0 -0.15547,0.0935 -0.18535,0.2078 -0.0476,0.18213 -9.9e-4,0.20909 0.37751,0.21816 0.23752,0.006 0.54874,0.0478 0.6916,0.0935 0.1862,0.0596 0.0523,0.0861 -0.47275,0.0935 -0.43652,0.006 -0.78189,-0.039 -0.85473,-0.11187 -0.22319,-0.22319 -0.49819,0.15425 -0.48291,0.66281 0.007,0.24557 -0.0486,0.54158 -0.12436,0.65782 -0.12126,0.18602 -0.34335,1.3527 -0.34902,1.83349 -0.003,0.24829 0.16022,0.26301 3.08901,0.27881 l 2.62351,0.0142 z m -1.03902,0.15375 c 0,-0.0571 0.0495,-0.1039 0.11004,-0.1039 0.0605,0 0.0811,0.0468 0.0458,0.1039 -0.0353,0.0571 -0.0848,0.1039 -0.11004,0.1039 -0.0252,0 -0.0458,-0.0468 -0.0458,-0.1039 z m -2.4478,-0.25645 c -0.19664,-0.14873 -0.19584,-0.15263 0.0321,-0.15585 0.14001,-0.002 0.23378,0.0592 0.23378,0.15255 0,0.19255 -0.0154,0.19274 -0.26587,0.003 z m -1.10101,-0.0552 c -0.0565,-0.18012 -0.0291,-0.62341 0.0386,-0.62341 0.0448,0 0.0815,0.0935 0.0815,0.2078 0,0.13854 0.0693,0.2078 0.20781,0.2078 0.11429,0 0.2078,0.0652 0.2078,0.14486 0,0.13366 -0.49521,0.19185 -0.53567,0.063 z m 0.70014,0.0139 c -0.0448,-0.0724 -0.0533,-0.15973 -0.019,-0.19403 0.093,-0.093 0.19438,0.0437 0.14415,0.19445 -0.0352,0.10558 -0.0597,0.1055 -0.12513,-4.2e-4 z m 0.77064,-0.0177 c 0,-0.0985 0.42569,-0.21014 0.53754,-0.14101 0.18752,0.11589 0.0692,0.23424 -0.22583,0.22585 -0.17144,-0.005 -0.31171,-0.0431 -0.31171,-0.0848 z m 0.72731,-0.0181 c 0,-0.09 0.10262,-0.11257 0.57146,-0.12547 0.24092,-0.007 0.31925,-0.0616 0.34491,-0.24235 0.0523,-0.36836 0.24345,-0.27249 0.20716,0.1039 -0.0321,0.33335 -0.0396,0.33774 -0.57804,0.34185 -0.30002,0.002 -0.54549,-0.0328 -0.54549,-0.0779 z m -2.77936,-0.1336 c -0.17054,-0.1937 -0.1639,-0.26019 0.026,-0.26019 0.0866,0 0.15585,0.0924 0.15585,0.2078 0,0.24376 -0.0106,0.24682 -0.18183,0.0524 z m 4.65779,-0.2169 c 0.005,-0.12104 0.0296,-0.14565 0.0628,-0.0628 0.03,0.075 0.0263,0.16462 -0.008,0.19914 -0.0345,0.0346 -0.0591,-0.0268 -0.0546,-0.13637 z m -4.08296,-0.67105 c -0.0214,-0.14527 -0.0202,-0.46087 0.003,-0.70134 l 0.0417,-0.43723 h 1.43521 c 0.78936,0 1.50877,-0.0282 1.59868,-0.0627 0.23211,-0.0891 0.30455,0.17863 0.22363,0.82635 -0.0508,0.40627 -0.11574,0.55972 -0.24554,0.57991 -0.0971,0.0151 -0.81573,0.0345 -1.59699,0.0433 l -1.42047,0.0158 z m 2.76923,0.007 c 0.21533,-0.0819 0.26652,-0.17049 0.26652,-0.46143 0,-0.19805 -0.0468,-0.38899 -0.10391,-0.42431 -0.0571,-0.0353 -0.1039,0.009 -0.1039,0.0978 0,0.0891 -0.0468,0.16199 -0.1039,0.16199 -0.0571,0 -0.1039,-0.0644 -0.1039,-0.14319 0,-0.11168 -0.2299,-0.14482 -1.04434,-0.15058 -1.02713,-0.007 -1.04331,-0.004 -0.98169,0.22112 0.0579,0.21117 0.0515,0.21471 -0.084,0.0467 -0.21982,-0.27244 -0.27965,-0.22397 -0.27965,0.22656 0,0.34089 0.0386,0.41582 0.23378,0.45341 0.46704,0.0899 2.04521,0.0708 2.30504,-0.028 z m -1.1881,-0.51096 c 0,-0.0511 0.0701,-0.1197 0.15585,-0.1526 0.0949,-0.0364 0.15585,-1.6e-4 0.15585,0.0928 0,0.0839 -0.0701,0.15259 -0.15585,0.15259 -0.0857,0 -0.15585,-0.0417 -0.15585,-0.0928 z m -2.12999,0.50839 c 0.0353,-0.0571 0.0848,-0.10391 0.11004,-0.10391 0.0252,0 0.0458,0.0468 0.0458,0.10391 0,0.0571 -0.0495,0.1039 -0.11003,0.1039 -0.0605,0 -0.0811,-0.0468 -0.0458,-0.1039 z m 4.12437,-0.36366 c 0.002,-0.17144 0.0254,-0.22899 0.0517,-0.1279 0.0263,0.10109 0.0246,0.24136 -0.004,0.31171 -0.0285,0.0703 -0.05,-0.0124 -0.0479,-0.18381 z m -2.40999,-1.66925 c 0,-0.0895 0.0485,-0.25333 0.1078,-0.36411 0.0898,-0.16773 0.0637,-0.22152 -0.15585,-0.32155 -0.3649,-0.16626 -0.33863,-0.39848 0.0451,-0.39848 0.25974,0 0.32232,-0.0525 0.3944,-0.33061 0.11737,-0.45296 0.3141,-0.48918 0.3548,-0.0653 0.0292,0.30393 0.0724,0.34778 0.37071,0.37655 0.37823,0.0364 0.46013,0.27823 0.12977,0.38308 -0.17784,0.0565 -0.19841,0.12534 -0.14226,0.47651 0.055,0.34422 0.0396,0.40052 -0.0958,0.34859 -0.0888,-0.0341 -0.18693,-0.12846 -0.21813,-0.20976 -0.0791,-0.20601 -0.24179,-0.18436 -0.45101,0.06 -0.21365,0.24952 -0.33955,0.26625 -0.33955,0.0451 z m -0.29145,-0.20098 c 0.002,-0.17143 0.0254,-0.22899 0.0517,-0.12789 0.0263,0.10109 0.0246,0.24135 -0.004,0.3117 -0.0285,0.0703 -0.05,-0.0124 -0.0479,-0.18381 z m 0.81096,-2.02608 c 0,-0.0571 0.0468,-0.1039 0.1039,-0.1039 0.0571,0 0.1039,0.0468 0.1039,0.1039 0,0.0571 -0.0468,0.1039 -0.1039,0.1039 -0.0571,0 -0.1039,-0.0468 -0.1039,-0.1039 z m -0.0475,-0.40842 c -0.0329,-0.0532 -0.0123,-0.12609 0.0458,-0.16199 0.0581,-0.0359 0.10559,0.008 0.10559,0.0967 0,0.1825 -0.0623,0.20937 -0.15141,0.0653 z m -0.0238,-0.62791 c 0.0497,-0.3254 0.17519,-0.37696 0.17519,-0.072 0,0.15239 -0.0465,0.27707 -0.10325,0.27707 -0.0568,0 -0.0892,-0.0923 -0.0719,-0.20512 z m 0.0226,-0.76045 c -0.0445,-0.10247 -0.0517,-0.21546 -0.0161,-0.25109 0.10551,-0.10551 0.19056,0.0427 0.142,0.24744 -0.0431,0.18151 -0.0486,0.18167 -0.12592,0.004 z m -0.009,-0.7059 c -0.0384,-0.0621 -0.0178,-0.16499 0.0458,-0.22859 0.0849,-0.0849 0.11562,-0.0549 0.11562,0.11296 0,0.25087 -0.054,0.28953 -0.16144,0.11563 z m 0.0657,-0.57107 c 0.005,-0.12104 0.0296,-0.14566 0.0628,-0.0628 0.03,0.075 0.0263,0.16462 -0.008,0.19914 -0.0345,0.0346 -0.0591,-0.0268 -0.0546,-0.13637 z m -0.0167,-0.48488 c -0.0795,-0.24161 -0.0762,-0.59702 0.006,-0.64782 0.065,-0.0402 0.10642,0.0781 0.10642,0.30402 0,0.20338 -0.0234,0.36978 -0.052,0.36978 -0.0286,0 -0.0558,-0.0117 -0.0605,-0.026 z m -0.0348,-0.89519 c -0.0448,-0.0724 -0.0533,-0.15973 -0.019,-0.19402 0.093,-0.093 0.19437,0.0437 0.14415,0.19444 -0.0352,0.10559 -0.0597,0.10551 -0.12513,-4.2e-4 z m 0,-0.5195 c -0.0448,-0.0724 -0.0533,-0.15973 -0.019,-0.19403 0.093,-0.093 0.19437,0.0437 0.14415,0.19445 -0.0352,0.10558 -0.0597,0.1055 -0.12513,-4.2e-4 z m 0.0347,-0.455534 c -0.0576,-0.17292 -0.0419,-0.51426 0.0257,-0.55601 0.0478,-0.0295 0.0869,0.0893 0.0869,0.26415 0,0.17481 -0.0234,0.31784 -0.052,0.31784 -0.0286,0 -0.0558,-0.0117 -0.0606,-0.026 z m -0.04,-0.9396 c -0.0445,-0.10247 -0.0517,-0.21546 -0.0161,-0.25109 0.10551,-0.10551 0.19056,0.0427 0.142,0.24744 -0.043,0.18152 -0.0486,0.18168 -0.12592,0.004 z m 0.0141,-0.55831 c -0.10779,-0.10779 -0.0814,-0.45025 0.0346,-0.45025 0.0571,0 0.1039,0.11689 0.1039,0.25976 0,0.27202 -0.024,0.30502 -0.13854,0.19049 z m 0,-0.72731 c -0.10877,-0.10877 -0.0809,-0.55414 0.0346,-0.55414 0.0571,0 0.1039,0.14026 0.1039,0.3117 0,0.32281 -0.0211,0.35982 -0.13854,0.24244 z m 3.87899,-0.76808 c 0,-0.0605 0.0468,-0.0811 0.1039,-0.0458 0.0571,0.0353 0.1039,0.0848 0.1039,0.11003 0,0.0252 -0.0468,0.0458 -0.1039,0.0458 -0.0571,0 -0.1039,-0.0495 -0.1039,-0.11003 z m -7.89652,-0.0978 c 0,-0.0571 0.0468,-0.1039 0.1039,-0.1039 0.0571,0 0.10391,0.0468 0.10391,0.1039 0,0.0571 -0.0468,0.1039 -0.10391,0.1039 -0.0571,0 -0.1039,-0.0468 -0.1039,-0.1039 z m 3.94826,-0.15585 c 0,-0.0857 0.0467,-0.15585 0.1039,-0.15585 0.0571,0 0.1039,0.0701 0.1039,0.15585 0,0.0857 -0.0468,0.15585 -0.1039,0.15585 -0.0571,0 -0.1039,-0.0701 -0.1039,-0.15585 z m -3.53265,-0.25362 c 0,-0.0537 0.0462,-0.12634 0.10271,-0.16125 0.0589,-0.0364 0.0763,0.006 0.0408,0.0978 -0.0691,0.18 -0.14355,0.21293 -0.14355,0.0635 z m 7.0653,-0.0123 c 0,-0.0605 0.0468,-0.0811 0.1039,-0.0458 0.0571,0.0353 0.1039,0.0848 0.1039,0.11003 0,0.0252 -0.0468,0.0458 -0.1039,0.0458 -0.0571,0 -0.1039,-0.0495 -0.1039,-0.11003 z m -3.47746,-0.23213 c -0.0445,-0.10247 -0.0517,-0.21547 -0.0161,-0.2511 0.10551,-0.10551 0.19057,0.0427 0.14201,0.24745 -0.043,0.18151 -0.0486,0.18167 -0.12593,0.004 z m 3.0099,-0.28125 c -0.0353,-0.0571 0.009,-0.1039 0.0978,-0.1039 0.0891,0 0.16199,0.0467 0.16199,0.1039 0,0.0571 -0.044,0.1039 -0.0978,0.1039 -0.0538,0 -0.12667,-0.0467 -0.16199,-0.1039 z m -2.40373,-1.09096 c 2.7e-4,-0.57147 0.0177,-0.79199 0.0388,-0.49006 0.0211,0.30193 0.0208,0.76949 -5e-4,1.03902 -0.0213,0.26953 -0.0386,0.0225 -0.0383,-0.54896 z m -0.66136,0.67535 c 0,-0.11429 0.0467,-0.2078 0.1039,-0.2078 0.0571,0 0.1039,0.0935 0.1039,0.2078 0,0.1143 -0.0468,0.20781 -0.1039,0.20781 -0.0571,0 -0.1039,-0.0935 -0.1039,-0.20781 z m 2.70352,-0.0494 c -0.082,-0.0988 -0.0898,-0.15837 -0.0209,-0.15837 0.12557,0 0.27197,0.19713 0.19992,0.26918 -0.0262,0.0261 -0.10669,-0.0238 -0.17898,-0.11081 z m -2.60734,-0.39214 c -0.0764,-0.25714 -0.0724,-0.49354 0.008,-0.49354 0.0568,0 0.10325,0.11689 0.10325,0.25976 0,0.20634 -0.0738,0.36095 -0.11162,0.23378 z m 2.1377,-0.18184 c -0.0353,-0.0571 -0.0175,-0.1039 0.0397,-0.1039 0.0571,0 0.1328,0.0468 0.16812,0.1039 0.0353,0.0571 0.0175,0.10391 -0.0397,0.10391 -0.0571,0 -0.1328,-0.0468 -0.16812,-0.10391 z m -0.46018,-0.56257 c -0.16432,-0.19799 -0.11515,-0.29556 0.0862,-0.1711 0.0767,0.0474 0.12043,0.14352 0.0971,0.21354 -0.0302,0.0906 -0.0831,0.0783 -0.18333,-0.0425 z m -1.7737,-0.4851 c 0,-0.25321 0.24279,-0.21742 0.29335,0.0433 0.0199,0.10253 -0.0331,0.17322 -0.12988,0.17322 -0.0964,0 -0.16347,-0.0888 -0.16347,-0.21646 z m 1.35072,-0.0952 c 0,-0.0571 0.0468,-0.1039 0.1039,-0.1039 0.0571,0 0.1039,0.0468 0.1039,0.1039 0,0.0571 -0.0468,0.1039 -0.1039,0.1039 -0.0571,0 -0.1039,-0.0467 -0.1039,-0.1039 z m -1.65422,-0.16451 c 0.005,-0.12104 0.0296,-0.14566 0.0628,-0.0628 0.03,0.075 0.0263,0.16463 -0.008,0.19915 -0.0345,0.0346 -0.0591,-0.0269 -0.0546,-0.13637 z m 0.84326,-0.19915 c 0.002,-0.17143 0.0254,-0.22899 0.0517,-0.12789 0.0263,0.10109 0.0246,0.24135 -0.004,0.3117 -0.0285,0.0703 -0.05,-0.0124 -0.0479,-0.18381 z m -0.53976,-0.18702 c 0,-0.13144 0.0561,-0.29508 0.12468,-0.36366 0.0764,-0.0764 0.0827,-0.12468 0.0161,-0.12468 -0.0597,0 -0.19221,0.0924 -0.29442,0.20536 -0.26097,0.28836 -0.39246,0.15561 -0.31281,-0.31582 0.0625,-0.37016 0.0469,-0.40608 -0.205,-0.4693 -0.37905,-0.0951 -0.27202,-0.2969 0.17779,-0.33516 0.34718,-0.0295 0.37838,-0.0609 0.44358,-0.4469 0.0841,-0.49775 0.28778,-0.48685 0.36178,0.0194 0.0476,0.32585 0.0849,0.35811 0.44792,0.38803 0.3059,0.0252 0.38838,0.0725 0.36259,0.2078 -0.0184,0.0964 -0.1428,0.19074 -0.27656,0.20975 -0.20047,0.0285 -0.2341,0.0821 -0.19146,0.30512 0.0718,0.37563 -0.009,0.52972 -0.2453,0.46792 -0.16102,-0.0421 -0.20109,0.002 -0.20109,0.21928 0,0.14953 -0.0468,0.27188 -0.1039,0.27188 -0.0571,0 -0.1039,-0.10754 -0.1039,-0.23898 z m 0.85139,-0.29592 c 0.0294,-0.51496 0.0521,-0.55843 0.30749,-0.58798 0.26284,-0.0304 0.27097,-0.0491 0.17425,-0.39938 -0.0558,-0.2021 -0.0778,-0.39113 -0.0489,-0.42007 0.10922,-0.10922 0.27424,0.0942 0.27424,0.33798 0,0.21254 0.0505,0.25362 0.31171,0.25362 0.34381,0 0.39785,0.15418 0.16542,0.47204 -0.13034,0.17825 -0.1849,0.18608 -0.50091,0.0718 -0.50502,-0.18262 -0.51736,-0.17479 -0.47869,0.30389 0.0233,0.28849 -0.0102,0.44743 -0.10076,0.47815 -0.10291,0.0349 -0.128,-0.0883 -0.1039,-0.51006 z m 1.01884,-0.54496 c 0,-0.0224 -0.0726,-0.0687 -0.16125,-0.10271 -0.0925,-0.0355 -0.13417,-0.018 -0.0978,0.0409 0.061,0.0987 0.25902,0.14603 0.25902,0.0619 z m -3.10146,-0.57737 c 0.0229,-0.0686 0.0755,-0.12118 0.11689,-0.11689 0.12423,0.0128 0.10017,0.15536 -0.0338,0.20001 -0.0686,0.0229 -0.10598,-0.0145 -0.0831,-0.0831 z m 1.81568,-0.53769 c -0.0866,-0.43309 -0.003,-0.51704 0.0909,-0.0909 0.0395,0.17961 0.0501,0.34822 0.0236,0.3747 -0.0265,0.0264 -0.078,-0.10124 -0.11451,-0.28378 z m -0.58445,-0.70819 c 0,-0.11092 0.0467,-0.23057 0.1039,-0.26589 0.0589,-0.0364 0.1039,0.0509 0.1039,0.20167 0,0.14624 -0.0468,0.26589 -0.1039,0.26589 -0.0571,0 -0.1039,-0.0908 -0.1039,-0.20167 z m 0.0693,-0.59491 c -0.10778,-0.10779 -0.0814,-0.45024 0.0346,-0.45024 0.0571,0 0.1039,0.11689 0.1039,0.25975 0,0.27202 -0.024,0.30502 -0.13853,0.19049 z m -0.0855,-0.62594 c -0.0602,-0.31167 -0.0257,-0.65217 0.0631,-0.62258 0.13702,0.0457 0.17793,0.56771 0.0507,0.64638 -0.0536,0.0331 -0.10481,0.0224 -0.11374,-0.0238 z m -2.89301,21.498484 c 0,-0.0445 -0.40911,-0.13673 -0.90914,-0.20494 -1.63159,-0.22255 -4.68732,-1.27485 -6.43077,-2.21457 -1.13587,-0.61223 -2.99473,-1.90984 -3.93288,-2.7454 -0.99245,-0.88394 -2.23441,-2.13241 -2.23441,-2.24612 0,-0.0375 0.36254,-0.45282 0.80564,-0.92288 l 0.80563,-0.85465 1.35589,1.33587 c 2.21441,2.18171 3.25208,2.87167 6.22813,4.14112 0.57837,0.2467 2.21242,0.77936 2.39089,0.77936 0.0811,0 0.34778,0.0673 0.59264,0.14952 0.50543,0.16975 1.84789,0.36702 1.84789,0.27154 0,-0.0346 -0.526,-0.17408 -1.1689,-0.30992 -0.64289,-0.13585 -1.72996,-0.42871 -2.41571,-0.65082 -1.3906,-0.4504 -3.88428,-1.64192 -4.74019,-2.26496 -0.30733,-0.22371 -0.7688,-0.56086 -1.02548,-0.74921 -0.25669,-0.18835 -1.04614,-0.91702 -1.75435,-1.61925 -0.7082,-0.70223 -1.32075,-1.2633 -1.36121,-1.24682 -0.0979,0.0399 -1.70742,1.83921 -1.75002,1.95644 -0.056,0.15417 1.73885,1.94627 2.82638,2.82197 1.97803,1.59276 3.95987,2.71242 6.35025,3.58765 1.88872,0.69155 4.51972,1.26556 4.51972,0.98607 z m 7.74066,-0.16616 c 1.3958,-0.28095 3.36474,-0.95487 4.83142,-1.65366 0.82986,-0.39539 2.28583,-1.22727 2.28583,-1.30604 0,-0.13327 -0.24314,-0.32586 -0.41139,-0.32586 -0.0891,0 -0.22156,0.0953 -0.29432,0.21183 -0.13366,0.21402 -0.38552,0.18031 -0.30269,-0.0405 0.21974,-0.58582 0.21381,-0.61149 -0.12417,-0.53725 -0.20492,0.045 -0.32205,0.0299 -0.32205,-0.0414 0,-0.0617 0.0488,-0.11216 0.10846,-0.11216 0.0597,0 0.0947,-0.0818 0.0779,-0.18183 -0.023,-0.13716 0.0524,-0.18983 0.30715,-0.21439 0.18572,-0.0179 0.33768,-0.0763 0.33768,-0.12988 0,-0.0535 -0.0351,-0.0976 -0.0779,-0.098 -0.0429,-3.6e-4 -0.15888,-0.1429 -0.25782,-0.31676 l -0.1799,-0.31611 -0.38971,0.26481 c -0.21433,0.14565 -0.44898,0.26481 -0.52143,0.26481 -0.0725,0 -0.13174,0.0468 -0.13174,0.10391 0,0.0571 -0.0584,0.10666 -0.12987,0.11003 -0.24263,0.0115 -1.06493,0.46358 -1.07798,0.5927 -0.0265,0.26222 -0.0442,0.28108 -0.13271,0.14135 -0.0743,-0.11723 -0.19089,-0.0961 -0.64779,0.11758 -0.30648,0.14331 -0.88452,0.36137 -1.28454,0.48458 -0.40003,0.12321 -0.93772,0.28923 -1.19487,0.36893 -0.25716,0.0797 -0.8416,0.21509 -1.29877,0.30087 -1.09061,0.20463 -1.19487,0.2514 -1.19487,0.53607 0,0.42817 0.0918,0.53462 0.41959,0.48651 0.17435,-0.0256 0.30772,0.002 0.30772,0.064 0,0.06 -0.13385,0.12376 -0.29745,0.14167 l -0.29745,0.0326 0.14639,0.49918 0.14639,0.49918 0.48874,-0.072 c 0.26881,-0.0396 0.52309,-0.12397 0.56508,-0.18747 0.0516,-0.078 0.0769,-0.0692 0.0779,0.0271 0.001,0.11305 0.0329,0.11658 0.15289,0.0171 0.0832,-0.0691 0.19687,-0.0974 0.25257,-0.063 0.0557,0.0344 0.13065,0.0151 0.16654,-0.043 0.0359,-0.0581 0.17416,-0.1056 0.30726,-0.1056 0.26607,0 1.89566,-0.45391 2.39317,-0.6666 0.17257,-0.0738 0.57092,-0.24164 0.88522,-0.37305 1.04106,-0.43526 1.9148,-0.85246 2.51075,-1.19886 0.32371,-0.18816 0.61727,-0.31342 0.65235,-0.27834 0.0351,0.0351 -0.12418,0.15985 -0.35389,0.27727 -2.50557,1.28077 -3.04837,1.52123 -4.41968,1.95796 -1.42968,0.4553 -1.94896,0.58775 -2.77937,0.7089 -0.44288,0.0646 -0.80524,0.16367 -0.80524,0.22013 0,0.11281 0.2575,0.0842 1.50658,-0.16719 z m 0.89137,-0.85253 c 0.005,-0.12104 0.0296,-0.14566 0.0628,-0.0628 0.03,0.075 0.0263,0.16462 -0.008,0.19915 -0.0345,0.0345 -0.0591,-0.0269 -0.0546,-0.13637 z m -0.21601,-0.77674 c 0,-0.0605 0.0468,-0.0811 0.1039,-0.0458 0.0571,0.0353 0.1039,0.0848 0.1039,0.11004 0,0.0252 -0.0468,0.0458 -0.1039,0.0458 -0.0571,0 -0.1039,-0.0495 -0.1039,-0.11003 z m 0.31171,0.006 c 0,-0.0571 0.0468,-0.1039 0.1039,-0.1039 0.0571,0 0.1039,0.0467 0.1039,0.1039 0,0.0571 -0.0468,0.1039 -0.1039,0.1039 -0.0571,0 -0.1039,-0.0468 -0.1039,-0.1039 z m 0.83121,-0.42672 c 0,-0.0633 0.0672,-0.0892 0.14934,-0.0577 0.0868,0.0333 0.16879,-0.0165 0.19575,-0.11876 0.0331,-0.12553 0.0499,-0.10897 0.0585,0.0577 0.009,0.16853 -0.046,0.23378 -0.19575,0.23378 -0.11429,0 -0.2078,-0.0518 -0.2078,-0.11502 z m 1.87023,-0.70508 c 0,-0.0972 0.24686,-0.21892 0.44396,-0.21892 0.0634,0 0.0245,0.0686 -0.0864,0.15255 -0.23245,0.17582 -0.35754,0.19904 -0.35754,0.0664 z m 0.46755,-0.94623 c -0.0353,-0.0571 0.006,-0.1039 0.0916,-0.1039 0.0857,0 0.18475,0.0468 0.22007,0.1039 0.0353,0.0571 -0.006,0.1039 -0.0916,0.1039 -0.0857,0 -0.18475,-0.0468 -0.22007,-0.1039 z m 0.72731,0 c 0.0353,-0.0571 0.12883,-0.1039 0.20781,-0.1039 0.079,0 0.17248,0.0468 0.2078,0.1039 0.0366,0.0591 -0.0529,0.1039 -0.2078,0.1039 -0.15489,0 -0.24437,-0.0447 -0.20781,-0.1039 z m -12.52017,3.24543 c 0,-0.21515 0.0935,-0.56564 0.2078,-0.77889 0.11429,-0.21324 0.2078,-0.50477 0.2078,-0.64784 0,-0.19087 -0.0553,-0.26013 -0.2078,-0.26013 -0.11429,0 -0.23018,-0.006 -0.25754,-0.0117 -0.0273,-0.006 -0.3897,-0.0763 -0.80523,-0.15543 -0.67723,-0.12889 -1.75793,-0.41993 -2.46988,-0.66517 -1.29499,-0.44608 -3.47738,-1.44215 -3.94826,-1.80203 -0.0857,-0.0655 -0.24936,-0.17026 -0.36366,-0.23277 -0.11429,-0.0625 -0.31038,-0.17732 -0.43576,-0.25514 -0.19909,-0.12356 -0.25504,-0.117 -0.44159,0.0518 -0.23244,0.21036 -0.27295,0.15442 -0.10943,-0.15112 0.13299,-0.24849 -0.0496,-0.3819 -0.27112,-0.19808 -0.13552,0.11248 -0.14917,0.0954 -0.0966,-0.12092 0.0496,-0.20391 -0.005,-0.29696 -0.2892,-0.48816 -0.19277,-0.12993 -0.50669,-0.37569 -0.6976,-0.54613 -0.26099,-0.23301 -0.36976,-0.27752 -0.43838,-0.17938 -0.0579,0.0828 -0.0672,0.045 -0.0255,-0.10325 0.0618,-0.21954 -0.0237,-0.2904 -0.29365,-0.24351 -0.0471,0.008 -0.0599,-0.0268 -0.0284,-0.0777 0.0315,-0.0509 -0.0303,-0.17183 -0.13736,-0.26868 -0.10702,-0.0968 -0.21514,-0.13816 -0.24027,-0.0918 -0.0251,0.0463 -0.031,0.0248 -0.0131,-0.0479 0.0403,-0.16365 -0.66404,-0.95877 -0.84929,-0.95877 -0.0743,0 -0.22806,0.12761 -0.34167,0.28358 -0.20571,0.2824 -0.20572,0.2848 -0.002,0.57146 0.2389,0.33551 0.14557,0.37919 -0.17225,0.0806 l -0.22062,-0.20727 -0.34058,0.3514 c -0.33001,0.34048 -0.33489,0.35803 -0.15717,0.56559 0.10087,0.11781 0.22904,0.18599 0.28483,0.15152 0.0558,-0.0345 0.0719,-0.015 0.0359,0.0434 -0.0361,0.0584 0.022,0.18531 0.12902,0.28216 0.10702,0.0968 0.21514,0.13817 0.24028,0.0918 0.0251,-0.0464 0.0328,-0.0293 0.017,0.0378 -0.0335,0.14269 1.30979,1.44234 2.16791,2.09746 0.61829,0.47203 0.881,0.50353 0.98189,0.11773 0.0298,-0.114 0.0955,-0.20728 0.14599,-0.20728 0.15008,0 0.10576,0.12759 -0.13239,0.38108 l -0.22417,0.23862 0.29378,0.23564 c 0.16158,0.12959 0.4202,0.30576 0.57473,0.39148 0.82863,0.45967 0.98699,0.55481 1.03445,0.62146 0.0286,0.0401 0.27404,0.15685 0.54549,0.25937 0.27144,0.10253 0.49353,0.22682 0.49353,0.2762 0,0.0494 0.0554,0.0898 0.12305,0.0898 0.0677,0 0.31314,0.0889 0.54548,0.19748 0.23234,0.10861 0.60946,0.25497 0.83804,0.32524 0.22858,0.0703 0.46236,0.16212 0.51951,0.20412 0.26745,0.19651 2.95112,0.95407 3.08555,0.87099 0.0459,-0.0284 0.0834,-0.0116 0.0834,0.0372 0,0.0488 0.17357,0.10049 0.38571,0.11478 0.21214,0.0143 0.40696,0.0472 0.43292,0.0732 0.026,0.0259 0.17969,0.0472 0.3416,0.0472 0.27112,0 0.29439,-0.0309 0.29439,-0.39117 z m -0.41561,-0.80983 c 0,-0.0891 0.0468,-0.13309 0.1039,-0.0978 0.0571,0.0353 0.1039,0.10821 0.1039,0.16198 0,0.0537 -0.0468,0.0978 -0.1039,0.0978 -0.0571,0 -0.1039,-0.0729 -0.1039,-0.16198 z m -1.4741,-0.2207 c 0.075,-0.03 0.16462,-0.0263 0.19914,0.008 0.0345,0.0346 -0.0268,0.0591 -0.13637,0.0546 -0.12104,-0.005 -0.14566,-0.0296 -0.0628,-0.0628 z m -1.43355,-0.2667 c 8.6e-4,-0.0714 0.0411,-0.19224 0.0894,-0.26847 0.0703,-0.11092 0.10087,-0.10465 0.15307,0.0314 0.0433,0.11291 0.0248,0.14499 -0.0551,0.0956 -0.0804,-0.0497 -0.0983,-0.0169 -0.054,0.0985 0.0365,0.0951 0.0211,0.1729 -0.0343,0.1729 -0.0553,0 -0.0999,-0.0585 -0.099,-0.12988 z m -1.94975,-0.75286 c -0.17672,-0.20072 -0.16328,-0.29523 0.0314,-0.22054 0.0925,0.0355 0.13417,0.018 0.0978,-0.0408 -0.0349,-0.0565 -0.0194,-0.10271 0.0344,-0.10271 0.0538,0 0.12027,0.11689 0.14758,0.25975 0.0548,0.2869 -0.10364,0.34004 -0.31116,0.10433 z m 2.47587,-0.009 c 0.005,-0.12103 0.0296,-0.14565 0.0628,-0.0628 0.03,0.075 0.0263,0.16462 -0.008,0.19914 -0.0345,0.0346 -0.0591,-0.0268 -0.0546,-0.13637 z m -4.19024,-0.81155 c -0.10001,-0.0758 -0.18183,-0.17497 -0.18183,-0.22039 0,-0.0454 0.0893,-0.002 0.1984,0.097 0.18822,0.17033 0.20439,0.16983 0.31553,-0.01 0.11163,-0.18052 0.11573,-0.18006 0.0873,0.01 -0.038,0.25415 -0.18858,0.29849 -0.41944,0.12352 z m -2.02608,-1.17078 c -0.16101,-0.065 -0.16968,-0.30993 -0.0144,-0.40592 0.12192,-0.0754 0.29581,0.12555 0.2985,0.34486 0.002,0.13524 -0.0649,0.14954 -0.28414,0.0611 z m -1.7923,-0.45069 c 0,-0.0571 0.0495,-0.1039 0.11003,-0.1039 0.0605,0 0.0811,0.0468 0.0458,0.1039 -0.0353,0.0571 -0.0848,0.1039 -0.11003,0.1039 -0.0252,0 -0.0458,-0.0468 -0.0458,-0.1039 z m 0.43626,-0.57672 c -0.20745,-0.23509 -0.0373,-0.40563 0.19501,-0.19543 0.10727,0.0971 0.17001,0.21702 0.13941,0.26653 -0.0786,0.12717 -0.17813,0.10601 -0.33442,-0.0711 z m -1.83893,-0.774 c 0.0353,-0.0571 0.0848,-0.10391 0.11003,-0.10391 0.0252,0 0.0458,0.0468 0.0458,0.10391 0,0.0571 -0.0495,0.1039 -0.11003,0.1039 -0.0605,0 -0.0811,-0.0468 -0.0458,-0.1039 z m 0.36666,-0.51545 c -0.1654,-0.10461 -0.0892,-0.23897 0.15585,-0.27494 0.0891,-0.0131 0.15285,0.0604 0.15285,0.17617 0,0.21928 -0.0785,0.24438 -0.3087,0.0988 z m 19.58243,4.14554 c 0.40002,-0.1167 1.0546,-0.31071 1.45462,-0.43115 1.07919,-0.32493 3.42438,-1.42772 4.07875,-1.91798 0.18606,-0.1394 0.38477,-0.22473 0.44158,-0.18962 0.0568,0.0351 0.10329,0.0228 0.10329,-0.0274 0,-0.0502 0.33898,-0.34246 0.75328,-0.64949 0.41431,-0.30702 1.32362,-1.12974 2.0207,-1.82826 l 1.26741,-1.27003 0.78464,0.83472 c 0.43156,0.45909 0.78465,0.86902 0.78465,0.91094 0,0.0419 -0.51382,0.59141 -1.14183,1.22107 -1.23917,1.24245 -3.22204,2.83258 -3.22204,2.58386 0,-0.0832 0.0959,-0.18172 0.21311,-0.21891 0.11721,-0.0372 0.34522,-0.19679 0.50668,-0.35463 0.16147,-0.15784 0.37475,-0.31813 0.47396,-0.3562 0.15426,-0.0592 0.15999,-0.0938 0.0396,-0.23882 -0.12499,-0.15061 -0.11398,-0.16111 0.0982,-0.0937 0.17637,0.056 0.28828,0.0191 0.42698,-0.14087 0.10338,-0.1192 0.22408,-0.21672 0.26822,-0.21672 0.17352,0 0.34748,-0.36098 0.23771,-0.49324 -0.0747,-0.09 -0.0747,-0.13017 -7e-5,-0.13017 0.0594,0 0.12546,0.0525 0.14685,0.11663 0.0214,0.0642 0.24737,-0.0838 0.50219,-0.32884 0.27938,-0.26862 0.41175,-0.46272 0.33343,-0.48894 -0.0714,-0.0239 -0.12987,-0.0921 -0.12987,-0.15144 0,-0.0676 0.0555,-0.0619 0.14843,0.0152 0.11998,0.0996 0.21905,0.0473 0.5167,-0.273 0.20254,-0.21791 0.36853,-0.41958 0.36886,-0.44815 3.3e-4,-0.0286 -0.29963,-0.37924 -0.66658,-0.77926 l -0.66719,-0.72732 -1.22681,1.20893 c -0.67474,0.66491 -1.58916,1.47328 -2.03204,1.79639 -0.44288,0.32311 -0.80524,0.62198 -0.80524,0.66416 0,0.0422 0.0775,0.18736 0.17225,0.32262 0.1606,0.22928 0.18123,0.23365 0.3048,0.0647 0.167,-0.22839 0.35416,-0.12124 0.35416,0.20276 0,0.20137 0.0609,0.25306 0.32968,0.27959 0.42229,0.0417 0.49626,0.25996 0.13469,0.39743 -0.22241,0.0846 -0.26707,0.15398 -0.21766,0.33832 0.0342,0.12756 0.0628,0.29278 0.0636,0.36716 0.002,0.24023 2.09474,-1.4497 3.40412,-2.74958 0.70007,-0.69499 1.27286,-1.3063 1.27286,-1.35846 0,-0.0521 -0.41994,-0.53553 -0.93321,-1.07416 l -0.93321,-0.97932 -0.22018,0.25975 c -0.95586,1.12764 -2.1757,2.25837 -3.42018,3.17036 -0.95325,0.69856 -3.8067,2.23252 -4.1529,2.23252 -0.0932,0 -0.21382,0.04 -0.26811,0.0889 -0.16154,0.14553 -1.78136,0.60411 -3.0279,0.85721 -0.63957,0.12987 -1.14421,0.2663 -1.12141,0.3032 0.0655,0.10592 1.38149,-0.0876 2.18038,-0.32068 z m 7.32505,-2.05931 c 0,-0.0571 0.0468,-0.13279 0.10391,-0.16811 0.0571,-0.0353 0.1039,-0.0175 0.1039,0.0397 0,0.0571 -0.0468,0.13279 -0.1039,0.16811 -0.0571,0.0353 -0.10391,0.0175 -0.10391,-0.0397 z m 0.51951,-0.58867 c 0,-0.19513 0.12912,-0.25932 0.27617,-0.13728 0.19729,0.16374 0.17307,0.25355 -0.0684,0.25355 -0.11429,0 -0.2078,-0.0523 -0.2078,-0.11627 z m 2.12998,-0.77431 c 0.0353,-0.0571 0.0848,-0.1039 0.11004,-0.1039 0.0252,0 0.0458,0.0468 0.0458,0.1039 0,0.0571 -0.0495,0.1039 -0.11004,0.1039 -0.0605,0 -0.0811,-0.0467 -0.0458,-0.1039 z m -1.19695,-0.15836 c -0.17959,-0.21639 -0.0471,-0.32131 0.15299,-0.12118 0.0884,0.0884 0.1608,0.18751 0.1608,0.22017 0,0.11538 -0.18406,0.0573 -0.31379,-0.099 z m 2.18402,-0.77062 c 0,-0.0538 0.0462,-0.12634 0.10271,-0.16125 0.0589,-0.0364 0.0763,0.006 0.0408,0.0978 -0.0691,0.18 -0.14355,0.21293 -0.14355,0.0635 z m -0.72731,-0.3649 c 0,-0.20861 0.22343,-0.68025 0.32225,-0.68025 0.20156,0 0.19555,0.23686 -0.0106,0.4156 -0.12479,0.10824 -0.19646,0.24602 -0.15926,0.3062 0.0372,0.0602 0.0181,0.10941 -0.0424,0.10941 -0.0605,0 -0.11004,-0.0679 -0.11004,-0.15096 z m -17.33023,4.5854 c 0.21174,-0.0738 0.49551,-0.25335 0.6306,-0.39912 0.13508,-0.14576 0.30339,-0.28428 0.37402,-0.30783 0.17915,-0.0597 0.30597,-3.76653 0.13253,-3.87372 -0.17004,-0.1051 -0.14785,-0.26938 0.0364,-0.26938 0.17602,0 0.1946,-0.0897 0.062,-0.29904 -0.0499,-0.0787 -0.14407,-0.11019 -0.20931,-0.0699 -0.0654,0.0404 -0.28187,-0.07 -0.48278,-0.24644 -0.2003,-0.17587 -0.40664,-0.31976 -0.45854,-0.31976 -0.0519,0 -0.37975,-0.26422 -0.72856,-0.58715 -0.65873,-0.60987 -1.17019,-1.312924 -1.53811,-2.114284 -0.88349,-1.92434 -1.01626,-2.31148 -1.11714,-3.25749 -0.0777,-0.72886 0.0453,-0.87885 -1.39324,1.69896 -0.58996,1.0572 -1.13147,1.99231 -1.20337,2.07803 -0.0719,0.0857 -0.29293,0.463584 -0.49119,0.839694 -0.19826,0.3761 -0.42992,0.79691 -0.5148,0.93511 -0.46034,0.74956 -0.72236,1.27485 -0.57633,1.15538 0.10152,-0.0831 0.18903,-0.0959 0.22763,-0.0335 0.0345,0.0558 -0.0215,0.1282 -0.12445,0.16088 -0.10295,0.0326 -0.35875,0.35773 -0.56846,0.72234 -0.31136,0.54136 -0.37023,0.73111 -0.32097,1.03466 0.0552,0.34007 0.13665,0.41445 0.95658,0.87343 0.93176,0.52156 2.02777,1.06558 2.14681,1.06558 0.0378,0 0.21609,0.0646 0.39617,0.14346 0.83846,0.3674 2.01017,0.71318 3.54835,1.04714 0.81922,0.17786 0.77375,0.17701 1.2162,0.0229 z m -6.87882,-5.3176 c 0,-0.0286 0.0935,-0.14546 0.2078,-0.25975 0.13321,-0.13321 0.2078,-0.15932 0.2078,-0.0727 0,0.0743 -0.0561,0.19117 -0.12468,0.25975 -0.12648,0.12648 -0.29092,0.16759 -0.29092,0.0727 z m 0.6234,-0.72731 c 0,-0.0857 0.0687,-0.15585 0.1526,-0.15585 0.093,0 0.12921,0.0609 0.0928,0.15585 -0.0329,0.0857 -0.10156,0.15585 -0.1526,0.15585 -0.051,0 -0.0928,-0.0701 -0.0928,-0.15585 z m 0.43509,-0.47405 c 0.025,-0.075 0.10683,-0.15683 0.18183,-0.18183 0.0779,-0.026 0.11689,0.013 0.0909,0.0909 -0.025,0.075 -0.10682,0.15683 -0.18183,0.18183 -0.0779,0.026 -0.11689,-0.013 -0.0909,-0.0909 z m 0.39613,-0.49324 c 0,-0.0558 0.074,-0.12986 0.16453,-0.16458 0.10119,-0.0388 0.14869,-0.0156 0.12338,0.0603 -0.0518,0.15531 -0.28791,0.24083 -0.28791,0.10426 z m 0.4156,-0.42426 c 0,-0.0511 0.0678,-0.11879 0.15056,-0.15057 0.10063,-0.0386 0.1314,-0.008 0.0928,0.0928 -0.0631,0.16435 -0.24334,0.20715 -0.24334,0.0578 z m 0.33119,-0.433224 c 0.025,-0.075 0.10682,-0.15682 0.18183,-0.18183 0.0779,-0.026 0.11689,0.013 0.0909,0.0909 -0.025,0.075 -0.10683,0.15683 -0.18183,0.18182 -0.0779,0.026 -0.11689,-0.013 -0.0909,-0.0909 z m 0.4156,-0.41561 c 0.025,-0.075 0.10683,-0.15683 0.18183,-0.18182 0.0779,-0.026 0.11689,0.013 0.0909,0.0909 -0.025,0.075 -0.10682,0.15682 -0.18182,0.18183 -0.0779,0.026 -0.11689,-0.013 -0.0909,-0.0909 z m 0.39613,-0.38028 c 0,-0.13073 0.29699,-0.38989 0.3668,-0.32007 0.0275,0.0276 -0.0437,0.13496 -0.15836,0.23871 -0.11464,0.10375 -0.20844,0.14036 -0.20844,0.0814 z m 0.51951,-0.58053 c 0,-0.0926 0.0935,-0.21834 0.2078,-0.27951 0.11429,-0.0612 0.2078,-0.0701 0.2078,-0.0198 0,0.0503 -0.0935,0.17608 -0.2078,0.27951 -0.18341,0.16599 -0.2078,0.16831 -0.2078,0.0198 z m 9.19528,9.226624 c 0.96516,-0.12294 2.96731,-0.74215 3.09878,-0.95837 0.0513,-0.0844 0.16829,-0.11462 0.29192,-0.0754 0.3176,0.10081 3.348,-1.43746 3.5033,-1.77832 0.17352,-0.38084 0.14598,-0.98174 -0.0626,-1.36639 -0.28906,-0.53299 -1.27016,-2.21932 -2.31377,-3.976954 -0.0509,-0.0857 -0.58992,-1.03246 -1.19783,-2.10387 -0.60791,-1.07141 -1.14767,-1.97422 -1.19948,-2.00624 -0.0518,-0.032 -0.0942,0.12518 -0.0942,0.34934 0,0.67461 -0.18535,1.44133 -0.50339,2.08235 -0.16539,0.33334 -0.35982,0.78891 -0.43207,1.01237 -0.35715,1.10474 -1.37231,2.410144 -2.40216,3.088974 -0.32133,0.21181 -0.70707,0.56234 -0.85719,0.77897 -0.31215,0.45044 -0.348,1.00019 -0.16386,2.51269 0.0591,0.48574 0.1312,1.11694 0.16012,1.40267 0.0542,0.53514 0.31692,0.8759 0.67915,0.88086 0.093,0.001 0.22904,0.0745 0.30228,0.16278 0.0826,0.0996 0.23535,0.14153 0.40236,0.11058 0.14804,-0.0274 0.50295,-0.0797 0.78868,-0.11606 z m -1.88093,-0.89963 c -0.0294,-0.0476 0.11289,-0.0866 0.31627,-0.0866 0.20339,0 0.36979,0.018 0.36979,0.0401 0,0.0853 -0.63545,0.12832 -0.68606,0.0464 z m 1.02572,-0.0547 c 0.10109,-0.0263 0.24136,-0.0246 0.3117,0.004 0.0703,0.0285 -0.0124,0.05 -0.1838,0.0479 -0.17144,-0.002 -0.22899,-0.0254 -0.1279,-0.0517 z m 0.77728,0.003 c 0.0714,-0.0288 0.18832,-0.0288 0.25976,0 0.0714,0.0288 0.013,0.0524 -0.12988,0.0524 -0.14286,0 -0.20131,-0.0236 -0.12988,-0.0524 z m 0.78124,-0.003 c 0.1011,-0.0263 0.24136,-0.0246 0.31171,0.004 0.0703,0.0285 -0.0124,0.05 -0.18381,0.0479 -0.17144,-0.002 -0.22899,-0.0254 -0.1279,-0.0517 z m 0.77729,0.003 c 0.0714,-0.0288 0.18832,-0.0288 0.25975,0 0.0714,0.0288 0.013,0.0524 -0.12988,0.0524 -0.14286,0 -0.20131,-0.0236 -0.12987,-0.0524 z m 0.78123,-0.003 c 0.1011,-0.0263 0.24136,-0.0246 0.31171,0.004 0.0703,0.0285 -0.0124,0.05 -0.18381,0.0479 -0.17143,-0.002 -0.22899,-0.0254 -0.1279,-0.0517 z m 4.09348,-2.17919 c -0.0381,-0.0381 -0.0678,-0.1433 -0.0661,-0.23378 0.003,-0.1351 0.0229,-0.13062 0.11343,0.0251 0.11187,0.1924 0.0794,0.33544 -0.0473,0.20867 z m -0.8528,-1.18446 c -0.0377,-0.0609 -0.0462,-0.1331 -0.019,-0.16034 0.0272,-0.0272 0.0772,0.0226 0.11104,0.11081 0.0703,0.18309 0.0104,0.2153 -0.0921,0.0495 z m -0.46329,-0.62263 c 0,-0.0605 0.0468,-0.0811 0.10391,-0.0458 0.0571,0.0353 0.1039,0.0848 0.1039,0.11004 0,0.0252 -0.0468,0.0458 -0.1039,0.0458 -0.0571,0 -0.10391,-0.0495 -0.10391,-0.11003 z m -0.8312,-1.08489 c 0,-0.0857 0.0184,-0.15586 0.0408,-0.15586 0.0225,0 0.0678,0.0701 0.10064,0.15586 0.0329,0.0857 0.0145,0.15585 -0.0408,0.15585 -0.0553,0 -0.10064,-0.0701 -0.10064,-0.15585 z m -0.77926,-0.98707 c -0.0353,-0.0571 -0.0147,-0.1039 0.0458,-0.1039 0.0605,0 0.11003,0.0468 0.11003,0.1039 0,0.0571 -0.0206,0.10391 -0.0458,0.10391 -0.0252,0 -0.0747,-0.0468 -0.11003,-0.10391 z m -0.85218,-1.062484 c -0.23567,-0.3043 -0.25019,-0.4277 -0.0251,-0.2132 0.13327,0.12699 0.2165,0.2567 0.18496,0.28825 -0.0315,0.0315 -0.10349,-0.002 -0.15988,-0.0751 z m -0.60672,-0.71076 c -0.11182,-0.18093 0.0155,-0.21925 0.15805,-0.0476 0.082,0.0987 0.0898,0.15836 0.0209,0.15836 -0.0608,0 -0.14132,-0.0499 -0.17898,-0.11081 z m -0.40021,-0.46914 c -0.0975,-0.25417 -0.0764,-0.28775 0.0928,-0.14735 0.17272,0.14335 0.20678,0.3117 0.0631,0.3117 -0.051,0 -0.12117,-0.0739 -0.15586,-0.16435 z m -4.1059,6.634014 c -0.0846,-0.14536 -0.10757,-0.0844 -0.11007,0.2926 -0.002,0.26192 0.0319,0.51182 0.0748,0.55533 0.12258,0.12444 0.15453,-0.64314 0.0353,-0.84793 z m 0.19847,-2.48172 c 0,-0.0857 -0.0468,-0.12695 -0.1039,-0.0916 -0.0571,0.0353 -0.1039,0.13435 -0.1039,0.22007 0,0.0857 0.0468,0.12695 0.1039,0.0916 0.0571,-0.0353 0.1039,-0.13436 0.1039,-0.22008 z m 0.61013,-0.56078 c 0.0359,-6.2e-4 -0.005,-0.052 -0.0906,-0.1137 -0.13161,-0.0947 -0.12761,-0.10303 0.0257,-0.0537 0.45084,0.14499 1.98401,-1.32668 1.8892,-1.81344 -0.0413,-0.211744 -0.0349,-0.219324 0.04,-0.048 0.0786,0.17971 0.12245,0.14635 0.37597,-0.28626 0.15784,-0.26933 0.37852,-0.73061 0.49041,-1.02507 0.16891,-0.44454 0.18267,-0.58549 0.0811,-0.83068 -0.17155,-0.41415 -0.26141,-0.37011 -0.40449,0.19823 -0.20892,0.82983 -0.83827,1.90535 -1.51454,2.58823 -0.72194,0.72902 -1.33018,1.05098 -1.58927,0.84125 -0.11016,-0.0892 -0.138,-0.0917 -0.0878,-0.008 0.0405,0.0675 0.0261,0.15207 -0.032,0.18796 -0.11575,0.0715 -0.14443,0.49904 -0.0405,0.60302 0.0358,0.0358 0.22857,-0.003 0.4283,-0.0866 0.19973,-0.0834 0.3925,-0.15245 0.42838,-0.15333 z m -2.76424,0.0104 c 0.0584,-0.22328 -0.0957,-0.42437 -0.32523,-0.42437 -0.26431,0 -1.11176,-0.60767 -1.62601,-1.16594 -0.52238,-0.567094 -1.35744,-2.078554 -1.46493,-2.651514 -0.0685,-0.36486 -0.13647,-0.40878 -0.33132,-0.21393 -0.097,0.097 -0.12468,0.0854 -0.12468,-0.052 0,-0.0971 0.0518,-0.17663 0.11516,-0.17663 0.0745,0 0.0888,-0.10091 0.0404,-0.28573 -0.22174,-0.84737 -0.36385,-1.70065 -0.36772,-2.20787 l -0.004,-0.5715 -0.20111,0.36366 c -0.16828,0.30429 -0.19217,0.49934 -0.14633,1.19486 0.0728,1.10426 0.0884,1.1647 0.57273,2.21245 0.67056,1.45066 0.9543,1.977054 1.34277,2.491044 0.43545,0.57613 1.57576,1.47641 1.63708,1.29246 0.0503,-0.15086 0.33623,-0.16924 0.33623,-0.0216 0,0.0571 -0.0525,0.1039 -0.11663,0.1039 -0.0806,0 -0.0766,0.0482 0.0127,0.15586 0.18611,0.22424 0.58826,0.19757 0.65122,-0.0432 z m -7.50873,-2.190704 c 0,-0.0571 -0.0468,-0.1039 -0.1039,-0.1039 -0.0571,0 -0.1039,0.0467 -0.1039,0.1039 0,0.0571 0.0468,0.1039 0.1039,0.1039 0.0571,0 0.1039,-0.0467 0.1039,-0.1039 z m 18.72376,-7.44958 c -0.0518,-0.27112 -0.0564,-0.27283 -0.13809,-0.052 -0.11314,0.30585 -0.34272,0.30114 -0.26059,-0.006 0.0345,-0.12858 0.0679,-0.6312 0.0744,-1.11694 0.008,-0.60329 0.0381,-0.80085 0.095,-0.62341 0.0458,0.14287 0.0879,0.41171 0.0935,0.59744 0.006,0.18572 0.0586,0.33768 0.11756,0.33768 0.0692,0 0.0968,-0.4286 0.0779,-1.20913 -0.028,-1.15523 -0.0399,-1.21307 -0.26887,-1.29757 -0.20413,-0.0754 -0.25425,-0.0463 -0.33855,0.19608 -0.096,0.27617 -0.11878,0.28351 -0.77344,0.2497 -0.5948,-0.0307 -0.67572,-0.0123 -0.68485,0.15585 -0.007,0.1326 -0.0324,0.11157 -0.0826,-0.0691 -0.0615,-0.22111 -0.13339,-0.25976 -0.48318,-0.25976 h -0.41092 l -0.0303,0.80524 c -0.0298,0.7914 0.0232,0.92665 0.26759,0.68229 0.0676,-0.0676 0.1588,-0.087 0.20261,-0.043 0.0438,0.044 -0.0307,0.16943 -0.16563,0.27881 -0.1932,0.15662 -0.3918,0.195 -0.93512,0.18071 -0.55071,-0.0145 -0.59595,-0.0264 -0.2243,-0.0591 0.60374,-0.0531 0.68524,-0.13256 0.71443,-0.69655 0.0397,-0.76777 -0.0525,-0.84718 -1.0755,-0.92582 -0.49065,-0.0377 -1.01067,-0.0388 -1.15559,-0.002 -0.22341,0.0561 -0.25322,0.10759 -0.19593,0.33861 0.0372,0.14985 0.10824,0.28718 0.15794,0.30515 0.11205,0.0405 0.35044,0.74064 0.27715,0.81393 -0.0294,0.0294 -0.21673,-0.28934 -0.41632,-0.70829 -0.35284,-0.74062 -0.3569,-0.76325 -0.14646,-0.81655 0.11904,-0.0301 0.23449,-0.10899 0.25657,-0.1752 0.0477,-0.14304 -0.46682,-0.50544 -0.57044,-0.40182 -0.0394,0.0394 -0.0103,0.10963 0.0648,0.156 0.20268,0.12528 -0.0752,0.52458 -0.37526,0.53933 -0.12912,0.006 -0.31659,0.0151 -0.41659,0.0194 -0.28553,0.0123 -0.64939,-0.13705 -0.64939,-0.26649 0,-0.0838 0.0359,-0.0817 0.12469,0.007 0.19387,0.19388 0.81043,0.16048 0.81043,-0.0439 0,-0.13807 0.0282,-0.14517 0.15585,-0.0392 0.12924,0.10725 0.15585,0.0956 0.15585,-0.0681 0,-0.10859 -0.0976,-0.28104 -0.21697,-0.38321 -0.21055,-0.18028 -0.21496,-0.17942 -0.14885,0.0288 0.11496,0.36223 -0.0268,0.23959 -0.32238,-0.27889 -0.36914,-0.64751 -1.02895,-1.68629 -1.23742,-1.94815 -0.16332,-0.20513 -0.16482,-0.2048 -0.1167,0.026 0.0311,0.1492 -9.8e-4,0.23377 -0.0887,0.23377 -0.0756,0 -0.15483,0.0521 -0.17606,0.11578 -0.0212,0.0637 -0.16272,0.1294 -0.31443,0.14605 -0.15171,0.0166 -0.32526,0.0608 -0.38567,0.0982 -0.13394,0.0828 -0.14637,0.36732 -0.016,0.36732 0.0516,0 0.36651,0.45587 0.69984,1.01304 l 0.60605,1.01304 0.0752,1.08157 c 0.0422,0.60655 0.12941,1.13132 0.19861,1.19486 0.0925,0.085 0.1074,0.0678 0.0594,-0.0685 -0.0352,-0.10001 -0.0187,-0.18183 0.0367,-0.18183 0.0554,0 0.10064,0.0935 0.10064,0.20781 0,0.15105 0.0693,0.2078 0.25363,0.2078 0.34167,0 0.3987,-0.12862 0.21402,-0.48272 -0.0851,-0.1631 -0.15178,-0.36667 -0.14827,-0.45239 0.004,-0.0868 0.0608,-0.0407 0.12903,0.1039 0.0675,0.14286 0.21024,0.3618 0.31731,0.48651 0.16144,0.18806 0.228,0.20596 0.38984,0.10489 0.10734,-0.067 0.19516,-0.17531 0.19516,-0.24062 0,-0.0653 0.0935,-0.1432 0.20781,-0.17309 0.13505,-0.0353 0.2078,-0.003 0.2078,0.0918 0,0.0804 -0.0701,0.14612 -0.15585,0.14612 -0.0857,0 -0.15585,0.0522 -0.15585,0.11602 0,0.0739 0.10373,0.0912 0.28572,0.0476 0.15716,-0.0377 0.49613,-0.11327 0.75329,-0.16801 0.25716,-0.0547 0.58445,-0.14613 0.72731,-0.20309 0.15738,-0.0627 0.46722,-0.07 0.78615,-0.0185 0.54215,0.0876 0.99314,-0.0203 0.96869,-0.23178 -0.0319,-0.27588 0.0254,-0.37338 0.21929,-0.37338 0.23312,0 0.29606,0.36328 0.0779,0.4498 -0.0714,0.0283 0.1465,0.0439 0.4843,0.0346 0.43605,-0.012 0.62796,0.024 0.6617,0.12397 0.0362,0.10717 -0.0276,0.12434 -0.26661,0.0718 -0.18422,-0.0404 -0.34223,-0.0235 -0.3821,0.041 -0.0439,0.0711 0.0955,0.10998 0.39435,0.10998 0.45201,0 0.46328,-0.008 0.50526,-0.36784 0.0487,-0.41689 -0.11641,-0.62069 -0.43526,-0.53731 -0.11459,0.0299 -0.20835,0.0121 -0.20835,-0.0397 0,-0.0518 0.14026,-0.0942 0.3117,-0.0942 0.30096,0 0.31211,-0.017 0.32336,-0.49353 0.0114,-0.48263 0.0146,-0.47747 0.14344,0.23378 0.0725,0.40002 0.11712,0.86757 0.0992,1.03901 -0.0179,0.17144 -0.0558,0.53379 -0.0841,0.80524 l -0.0515,0.49353 h 0.34183 c 0.3153,0 0.33767,-0.0218 0.28824,-0.28037 z m -7.24264,-0.65473 c 0.0353,-0.0571 0.0848,-0.10391 0.11003,-0.10391 0.0252,0 0.0458,0.0468 0.0458,0.10391 0,0.0571 -0.0495,0.1039 -0.11003,0.1039 -0.0605,0 -0.0811,-0.0468 -0.0458,-0.1039 z m 0.67695,-0.33769 c 0.001,-0.17222 0.0253,-0.19635 0.0916,-0.0916 0.0495,0.0782 0.15401,0.18266 0.23219,0.23218 0.10471,0.0663 0.0806,0.0905 -0.0916,0.0916 -0.17411,0.001 -0.23337,-0.0581 -0.23219,-0.23219 z m 1.24523,0.058 c 0,-0.18493 0.39841,-0.33032 0.69027,-0.25191 l 0.29679,0.0797 -0.3117,0.075 c -0.17144,0.0413 -0.39353,0.0993 -0.49353,0.12904 -0.10001,0.0297 -0.18183,0.0153 -0.18183,-0.0319 z m -0.41561,-0.46033 c 0,-0.18424 0.0256,-0.19924 0.15585,-0.0912 0.0857,0.0711 0.15586,0.17038 0.15586,0.22053 0,0.0501 -0.0701,0.0912 -0.15586,0.0912 -0.0896,0 -0.15585,-0.0938 -0.15585,-0.22053 z m -0.2953,-0.92239 c 0,-0.14286 0.0236,-0.20131 0.0524,-0.12987 0.0288,0.0714 0.0288,0.18831 0,0.25975 -0.0288,0.0714 -0.0524,0.013 -0.0524,-0.12988 z m 1.17951,-0.4173 c 0.0359,-0.0581 0.10879,-0.0787 0.16199,-0.0458 0.14411,0.0891 0.11724,0.15141 -0.0653,0.15141 -0.0891,0 -0.13262,-0.0475 -0.0967,-0.1056 z m -2.99687,-0.37928 c -0.0993,-0.0993 -0.0854,-0.24243 0.0235,-0.24243 0.051,0 0.1197,0.0701 0.15259,0.15585 0.0608,0.15837 -0.0499,0.21279 -0.17611,0.0866 z m 0.24244,-0.34633 c -0.13432,-0.0868 -0.13157,-0.10094 0.0198,-0.10231 0.0966,-6.2e-4 0.20459,0.0452 0.23991,0.10231 0.0813,0.1315 -0.0563,0.1315 -0.25976,0 z m -0.20781,-0.68402 c 0,-0.0905 0.0555,-0.14601 0.12338,-0.12338 0.19266,0.0642 0.22461,0.28789 0.0411,0.28789 -0.0905,0 -0.16451,-0.074 -0.16451,-0.16451 z m -1.14657,-0.72306 c -0.0911,-0.10971 -0.0993,-0.19393 -0.0262,-0.26703 0.0731,-0.0731 0.12287,-0.0226 0.15782,0.16025 0.0595,0.31143 0.0468,0.32175 -0.13159,0.10678 z m 0.61709,-0.13179 c 0.13328,-0.2501 0.32752,-0.26189 0.40659,-0.0247 0.0282,0.0847 -0.001,0.1088 -0.076,0.0625 -0.0671,-0.0414 -0.19767,-0.0129 -0.29024,0.0635 -0.15151,0.12496 -0.15554,0.11485 -0.0404,-0.10127 z m 4.88961,4.33002 c 0.005,-0.0834 -0.50793,-0.15925 -0.74955,-0.11088 -0.23716,0.0475 -0.22932,0.14057 0.0407,0.48388 l 0.22256,0.28294 0.24126,-0.2949 c 0.13269,-0.1622 0.24294,-0.32466 0.245,-0.36104 z m 0.91506,0.1375 c 0.0253,-0.0759 -0.0222,-0.0992 -0.12338,-0.0603 -0.0905,0.0347 -0.16454,0.10878 -0.16454,0.16457 0,0.13657 0.23615,0.051 0.28792,-0.10426 z m 3.55644,-0.30111 c 0,-0.12608 -0.0317,-0.14375 -0.11266,-0.0628 -0.0945,0.0945 -0.51075,0.0759 -0.51075,-0.0228 0,-0.32278 0.53896,-0.50947 0.66444,-0.23016 0.0321,0.0714 0.0477,-0.29877 0.0346,-0.82268 -0.013,-0.5239 -0.0471,-0.97423 -0.0757,-1.00072 -0.0286,-0.0265 -0.20391,-0.025 -0.38963,0.003 l -0.33768,0.0514 v 0.91482 c 0,0.50316 -0.0268,0.98469 -0.0596,1.07008 -0.0595,0.15516 0.0564,0.20834 0.55311,0.25368 0.15858,0.0145 0.23378,-0.0351 0.23378,-0.15413 z m -2.80534,0.0281 c 0,-0.0252 -0.0468,-0.0747 -0.1039,-0.11004 -0.0571,-0.0353 -0.1039,-0.0147 -0.1039,0.0458 0,0.0605 0.0468,0.11003 0.1039,0.11003 0.0571,0 0.1039,-0.0206 0.1039,-0.0458 z m 3.31449,-1.01917 c 0.006,-0.32859 -0.0323,-0.59744 -0.0844,-0.59744 -0.0521,0 -0.09,0.38574 -0.0841,0.85719 0.0118,0.95082 0.15127,0.73592 0.16853,-0.25975 z m -0.0935,-0.91527 c 0,-0.11767 -0.0447,-0.1863 -0.0994,-0.15253 -0.0547,0.0337 -0.073,0.13005 -0.0408,0.21394 0.0824,0.21477 0.1402,0.18946 0.1402,-0.0614 z m -9.76674,-0.36213 c 0,-0.12479 -0.77718,-1.39807 -0.85334,-1.39807 -0.045,0 -0.0818,0.32729 -0.0818,0.72732 v 0.72731 h 0.46755 c 0.25716,0 0.46756,-0.0255 0.46756,-0.0566 z m -9.00834,-0.69906 c 0.0361,-0.23371 0.021,-0.36756 -0.0373,-0.33155 -0.0538,0.0332 -0.0978,0.22909 -0.0978,0.43526 0,0.45988 0.0545,0.41804 0.13499,-0.10371 z m 10.41302,-0.66338 c -0.42501,-0.74215 -0.67409,-1.11787 -0.67566,-1.01918 -9.2e-4,0.0591 0.16193,0.3614 0.36195,0.67185 0.20001,0.31045 0.36365,0.60889 0.36365,0.6632 0,0.0543 0.0268,0.0719 0.0596,0.0392 0.0328,-0.0328 -0.0165,-0.19254 -0.10955,-0.355 z m -2.54919,-0.37944 c 8.6e-4,-0.10337 -0.0452,-0.15906 -0.10231,-0.12374 -0.0571,0.0353 -0.10318,0.19003 -0.10231,0.34381 10e-4,0.21869 0.0235,0.24564 0.10231,0.12374 0.0554,-0.0857 0.10144,-0.24043 0.10231,-0.34381 z m -0.094,-1.47451 c -0.0105,-0.62861 -0.0453,-1.24865 -0.0772,-1.37787 -0.0446,-0.18051 -0.0215,-0.22089 0.10001,-0.17428 0.13021,0.05 0.12349,-0.009 -0.0381,-0.3365 -0.1079,-0.21846 -0.2212,-0.56083 -0.25179,-0.76084 l -0.0556,-0.36366 0.14929,0.36366 c 0.14019,0.34153 0.14976,0.27357 0.15718,-1.11694 0.005,-0.92307 -0.0312,-1.4806 -0.096,-1.4806 -0.0944,0 -0.15212,0.23054 -0.11296,0.45133 0.009,0.0482 -0.0444,0.0657 -0.11757,0.039 -0.13913,-0.0509 -0.14292,-0.11144 -0.0258,-0.41236 0.0608,-0.1563 0.007,-0.1816 -0.38193,-0.18024 -0.74523,0.002 -0.73295,-0.0306 -0.71487,1.93246 0.009,0.96495 0.0131,2.35512 0.009,3.08926 -0.004,0.73414 0.0206,1.37908 0.054,1.43319 0.0334,0.0541 0.36688,0.0847 0.74097,0.0679 l 0.68015,-0.0305 z m -0.66776,0.65275 c -0.0797,-0.30481 -0.008,-0.35742 0.13179,-0.0965 0.0634,0.1184 0.0722,0.23536 0.0202,0.26749 -0.0508,0.0314 -0.11921,-0.0455 -0.15202,-0.17099 z m -0.37959,0.0226 c 0,-0.0571 0.0468,-0.10391 0.10391,-0.10391 0.0571,0 0.1039,0.0468 0.1039,0.10391 0,0.0571 -0.0468,0.1039 -0.1039,0.1039 -0.0571,0 -0.10391,-0.0468 -0.10391,-0.1039 z m 0.23671,-1.89621 c -0.21951,-0.28382 -0.20541,-0.33807 0.0907,-0.34901 0.22727,-0.008 0.29207,0.0276 0.24954,0.13837 -0.0316,0.0823 -0.0575,0.19265 -0.0575,0.24512 0,0.13749 -0.16541,0.11733 -0.28281,-0.0345 z m -0.23355,-0.6073 c -0.003,-0.15678 0.38121,-0.59121 0.44249,-0.50034 0.0158,0.0234 0.0938,0.12742 0.17336,0.23102 0.1327,0.17286 0.12256,0.18283 -0.12325,0.12113 -0.1979,-0.0497 -0.29678,-0.0174 -0.37864,0.12335 -0.0915,0.15747 -0.11134,0.16179 -0.11396,0.0248 z m 0.22846,-1.25643 c 0.0642,-0.19265 0.28789,-0.22461 0.28789,-0.0411 0,0.0905 -0.074,0.16451 -0.16451,0.16451 -0.0905,0 -0.146,-0.0555 -0.12338,-0.12338 z m 0.4957,-0.32072 c 0,-0.20617 0.044,-0.40203 0.0978,-0.43525 0.0583,-0.036 0.0733,0.0978 0.0372,0.33155 -0.0805,0.52175 -0.135,0.56358 -0.135,0.1037 z m -0.97467,-0.0494 c -0.0295,-0.10001 -0.0466,-0.52082 -0.0382,-0.93512 0.0133,-0.65041 0.0409,-0.75329 0.20241,-0.75329 0.14813,0 0.18549,0.081 0.17971,0.38963 -0.006,0.32386 -0.0238,0.35456 -0.10493,0.18183 -0.0677,-0.14416 -0.0857,0.0229 -0.0585,0.54548 0.0363,0.70007 -0.0563,0.99328 -0.1805,0.57147 z m 0.56065,-1.24682 c 10e-4,-0.28983 0.0274,-0.34971 0.10231,-0.23378 0.13234,0.20477 0.13234,0.62341 0,0.62341 -0.0571,0 -0.10318,-0.17534 -0.10231,-0.38963 z m -1.19513,5.33874 c -0.31758,-0.18103 -0.98839,-0.85741 -0.98839,-0.99661 0,-0.0683 0.11742,0.0155 0.26095,0.18603 0.14352,0.17056 0.41968,0.40377 0.6137,0.51825 l 0.35276,0.20813 0.0602,-0.22455 c 0.0838,-0.31243 0.0778,-0.85052 -0.0104,-0.93878 -0.0404,-0.0404 -0.06,-0.46362 -0.0435,-0.9404 0.0203,-0.5873 -0.0146,-0.9388 -0.10832,-1.08989 -0.096,-0.15491 -0.10423,-0.24585 -0.0268,-0.29777 0.1887,-0.12654 0.23546,-0.38631 0.11108,-0.61708 l -0.11866,-0.22015 -0.28471,0.2455 c -0.19,0.16383 -0.26451,0.30795 -0.22398,0.43319 0.0465,0.14358 0.0367,0.15404 -0.0413,0.0445 -0.12933,-0.18141 -0.29214,-0.0816 -0.48952,0.30009 -0.18739,0.36238 -0.23569,0.60361 -0.27021,1.34967 -0.0258,0.55876 -0.0279,0.55415 -0.0929,-0.20781 l -0.0665,-0.77926 -0.0173,0.67536 c -0.02,0.78102 0.0669,1.23443 0.19644,1.02483 0.0461,-0.0746 0.11642,-0.10307 0.15624,-0.0632 0.0398,0.0398 0.012,0.14517 -0.0618,0.23409 -0.11295,0.13609 -0.085,0.22284 0.17667,0.548 0.3449,0.42863 0.96608,0.89127 1.06138,0.79051 0.0338,-0.0357 -0.0315,-0.11788 -0.14508,-0.18262 z m -0.14159,-0.89176 c 0.0229,-0.0686 0.0755,-0.12117 0.11688,-0.11689 0.12424,0.0128 0.10018,0.15537 -0.0338,0.20001 -0.0686,0.0229 -0.10598,-0.0145 -0.0831,-0.0831 z m -0.80428,-1.29107 c -0.088,-0.22939 0.0291,-0.3465 0.18779,-0.18779 0.0937,0.0937 0.0941,0.15179 0.002,0.24422 -0.0924,0.0924 -0.13749,0.079 -0.18946,-0.0564 z m 0.12463,-1.04388 c 0.0619,-0.16119 0.35236,-0.31075 0.35236,-0.1814 0,0.10336 -0.22587,0.32923 -0.32923,0.32923 -0.0439,0 -0.0543,-0.0665 -0.0231,-0.14783 z m 3.80869,2.96807 c 0.17494,-0.1468 0.17434,-0.16395 -0.013,-0.37015 -0.24493,-0.2696 -0.48274,-0.70671 -0.44863,-0.82459 0.0141,-0.0489 -0.0293,-0.1552 -0.0966,-0.23628 -0.0673,-0.0811 -0.0974,-0.17237 -0.0669,-0.20285 0.0305,-0.0305 0.15266,0.0811 0.27149,0.24802 0.11884,0.16689 0.18741,0.33209 0.15238,0.36712 -0.072,0.072 0.15555,0.38042 0.28059,0.38042 0.0966,0 0.41265,-0.88966 0.41265,-1.16143 0,-0.14187 -0.0796,-0.1893 -0.31784,-0.1893 -0.20131,0 -0.29238,-0.0412 -0.24842,-0.11231 0.0382,-0.0618 0.17634,-0.0855 0.30701,-0.0527 0.16053,0.0403 0.25792,0.007 0.30027,-0.10374 0.0778,-0.20282 -0.0308,-0.66637 -0.15619,-0.66637 -0.051,0 -0.0926,-0.0623 -0.0926,-0.13854 0,-0.20936 -0.64198,-0.87643 -0.91951,-0.95545 l -0.24416,-0.0695 0.0487,0.97138 c 0.0268,0.53426 0.0856,1.0839 0.13065,1.22141 0.0551,0.16817 0.0458,0.22765 -0.0286,0.18168 -0.0697,-0.0431 -0.0904,0.009 -0.0561,0.14017 0.03,0.11467 0.003,0.27079 -0.0604,0.34694 -0.0864,0.10407 -0.0683,0.18749 0.0726,0.33596 0.16042,0.16897 0.16851,0.23411 0.056,0.45098 -0.17805,0.34317 -0.0909,0.43924 0.2418,0.26661 0.35998,-0.18675 0.53409,-0.0779 0.22112,0.13823 -0.29959,0.20691 -0.50116,0.40075 -0.50116,0.48192 0,0.0692 0.47363,-0.2116 0.7549,-0.44763 z m -0.67048,-3.41073 c 0.075,-0.03 0.16462,-0.0263 0.19915,0.008 0.0345,0.0345 -0.0268,0.0591 -0.13637,0.0545 -0.12104,-0.005 -0.14566,-0.0296 -0.0628,-0.0628 z m 1.39923,3.3917 c -0.0305,-0.11656 -0.0786,-0.18871 -0.10701,-0.16033 -0.0562,0.0562 0.0431,0.37225 0.11695,0.37225 0.025,0 0.0205,-0.0954 -0.01,-0.21192 z m -0.17957,-0.7718 c 0.0828,-0.19818 0.14872,-0.42026 0.14648,-0.49353 -0.002,-0.0733 -0.0677,0.0131 -0.14559,0.19199 -0.0778,0.17887 -0.1929,0.35696 -0.25569,0.39577 -0.14523,0.0898 -0.14852,0.26609 -0.005,0.26609 0.0601,0 0.17695,-0.16215 0.25975,-0.36032 z m 0.22403,-1.43077 c -0.0249,-0.12925 -0.0461,-0.048 -0.0473,0.18062 -10e-4,0.22858 0.0192,0.33432 0.0452,0.23498 0.026,-0.0993 0.0269,-0.28636 0.002,-0.4156 z m -0.10641,-0.61813 c -0.0332,-0.0829 -0.0578,-0.0583 -0.0628,0.0628 -0.004,0.10954 0.02,0.1709 0.0546,0.13637 0.0345,-0.0345 0.0382,-0.12414 0.008,-0.19914 z m -3.93107,-1.25304 c 0.55089,-0.49727 0.55955,-0.6128 0.0135,-0.18033 -0.44251,0.35048 -1.03812,1.13767 -1.03481,1.36767 0.001,0.0754 0.13426,-0.0733 0.29596,-0.33043 0.16169,-0.25715 0.48809,-0.64276 0.72534,-0.85691 z m 3.54839,0.49861 c 0,-0.0945 -0.47465,-0.54894 -0.6945,-0.6649 -0.36344,-0.1917 -0.42613,-0.13726 -0.0848,0.0736 0.17143,0.1059 0.40077,0.29275 0.50963,0.41522 0.19476,0.21912 0.26963,0.26801 0.26963,0.17608 z m -3.10925,-1.22879 c -0.0129,-0.12424 -0.15537,-0.10017 -0.20001,0.0337 -0.0229,0.0686 0.0145,0.10598 0.0831,0.0831 0.0686,-0.0229 0.12117,-0.0755 0.11689,-0.11689 z m 6.32956,32.241124 -0.26039,-0.28561 0.28636,-0.26237 c 0.18004,-0.16496 0.28637,-0.21031 0.28637,-0.12215 0,0.0771 0.10099,0.19427 0.22442,0.26033 0.20538,0.10992 0.20922,0.12861 0.0453,0.22033 -0.0985,0.0551 -0.21118,0.18457 -0.25039,0.28765 -0.0644,0.1692 -0.0966,0.15966 -0.33169,-0.0982 z m -18.92852,-2.36694 c -0.0203,-0.17659 -0.12216,-0.3249 -0.26665,-0.38829 -0.28746,-0.12611 -0.29744,-0.22021 -0.0307,-0.28995 0.11166,-0.0292 0.26969,-0.20998 0.35116,-0.40175 0.15217,-0.35812 0.16028,-0.35367 0.3295,0.18072 0.0289,0.0912 0.14575,0.19011 0.25975,0.21992 0.27079,0.0708 0.26227,0.16437 -0.0265,0.29106 -0.14449,0.0634 -0.24633,0.2117 -0.26665,0.38829 -0.0181,0.15716 -0.0968,0.28573 -0.17493,0.28573 -0.0781,0 -0.15684,-0.12857 -0.17493,-0.28573 z m 0.33078,-0.54548 c 0,-0.0571 -0.0729,-0.1039 -0.16198,-0.1039 -0.0891,0 -0.13309,0.0468 -0.0978,0.1039 0.0353,0.0571 0.10821,0.10391 0.16198,0.10391 0.0538,0 0.0978,-0.0468 0.0978,-0.10391 z m 2.01503,-7.21249 c -0.0492,-0.12827 -0.0924,-0.14546 -0.14627,-0.0582 -0.048,0.0777 -0.10019,0.0853 -0.14025,0.0205 -0.0351,-0.0568 -0.006,-0.15141 0.0652,-0.21031 0.18771,-0.15579 0.58146,0.13963 0.41199,0.3091 -0.0919,0.0919 -0.13762,0.0773 -0.1907,-0.061 z m 22.71353,-0.24104 c 0,-0.0447 0.096,-0.14128 0.21342,-0.21458 0.27357,-0.17086 0.21106,-0.38275 -0.37482,-1.2707 -0.24627,-0.37324 -0.57253,-0.92702 -0.72502,-1.23061 -0.15248,-0.3036 -0.50552,-0.947264 -0.78453,-1.430374 -0.279,-0.48311 -0.46562,-0.85263 -0.4147,-0.82117 0.0509,0.0315 0.48257,0.73755 0.95924,1.569064 1.20055,2.09428 1.16354,2.03068 1.41735,2.43586 0.29474,0.47054 0.28782,0.6646 -0.0312,0.87362 -0.14286,0.0936 -0.25975,0.13361 -0.25975,0.0889 z m -22.59753,-0.34078 c 0.0359,-0.0581 0.10879,-0.0787 0.16199,-0.0458 0.14411,0.0891 0.11724,0.15141 -0.0653,0.15141 -0.0891,0 -0.13262,-0.0475 -0.0967,-0.1056 z m 22.18193,-0.004 c 0,-0.0605 0.0468,-0.0811 0.1039,-0.0458 0.0571,0.0353 0.1039,0.0848 0.1039,0.11003 0,0.0252 -0.0468,0.0458 -0.1039,0.0458 -0.0571,0 -0.1039,-0.0495 -0.1039,-0.11004 z m -22.72733,-0.2163 c -0.0775,-0.0775 -0.0256,-0.23773 0.17512,-0.54133 0.15685,-0.23721 0.44402,-0.72451 0.63816,-1.08292 0.19414,-0.3584 0.36742,-0.60832 0.38507,-0.55538 0.0177,0.053 -0.20538,0.52392 -0.49562,1.04662 -0.29023,0.52269 -0.50228,0.99147 -0.47122,1.04173 0.0864,0.13988 -0.10673,0.21606 -0.23151,0.0913 z m 22.1687,-0.0415 c -0.10026,-0.26128 -0.0707,-0.32869 0.0518,-0.11807 0.0607,0.1043 0.0884,0.21151 0.0616,0.23827 -0.0267,0.0267 -0.0778,-0.0273 -0.11342,-0.1202 z m 0.29887,-0.25606 c -0.0353,-0.0571 0.009,-0.1039 0.0978,-0.1039 0.0891,0 0.16199,0.0467 0.16199,0.1039 0,0.0571 -0.044,0.1039 -0.0978,0.1039 -0.0538,0 -0.12667,-0.0468 -0.16199,-0.1039 z m -0.58471,-0.2859 c -0.12924,-0.16479 -0.12556,-0.16847 0.0392,-0.0392 0.10001,0.0784 0.18183,0.16025 0.18183,0.18183 0,0.0855 -0.0853,0.0305 -0.22106,-0.1426 z m -20.97485,-0.0357 c 0,-0.17516 0.21769,-0.20298 0.42918,-0.0548 0.21654,0.15167 0.21411,0.15509 -0.10372,0.14606 -0.179,-0.005 -0.32546,-0.0462 -0.32546,-0.0912 z m 0.72731,-0.13974 c 0,-0.0891 0.0468,-0.16198 0.1039,-0.16198 0.0571,0 0.1039,0.044 0.1039,0.0978 0,0.0537 -0.0468,0.12666 -0.1039,0.16198 -0.0571,0.0353 -0.1039,-0.009 -0.1039,-0.0978 z m 20.58147,-0.0998 c -0.0658,-0.16582 -0.10036,-0.35284 -0.0767,-0.41561 0.0236,-0.0628 0.0968,0.0215 0.16268,0.18733 0.0658,0.16581 0.10036,0.35283 0.0767,0.41561 -0.0236,0.0628 -0.0968,-0.0215 -0.16268,-0.18733 z m -0.42458,-0.84766 c 0,-0.0891 0.0468,-0.13309 0.1039,-0.0978 0.0571,0.0353 0.10391,0.10821 0.10391,0.16199 0,0.0537 -0.0468,0.0978 -0.10391,0.0978 -0.0571,0 -0.1039,-0.0729 -0.1039,-0.16199 z m -20.40231,-0.92889 c 0.24023,-0.410254 0.24542,-0.416354 0.24542,-0.288594 0,0.0603 -0.0963,0.220094 -0.21397,0.355004 l -0.21397,0.24529 z m 19.93048,0.14894 c -0.11182,-0.18094 0.0155,-0.21926 0.15804,-0.0476 0.0819,0.0987 0.0898,0.15837 0.0209,0.15837 -0.0608,0 -0.14131,-0.0499 -0.17897,-0.11082 z M 111.6872,99.557906 c 0,-0.0571 0.0668,-0.22079 0.14848,-0.36365 0.0817,-0.14287 0.14849,-0.21301 0.14849,-0.15586 0,0.0571 -0.0668,0.22079 -0.14849,0.36366 -0.0817,0.14286 -0.14848,0.213 -0.14848,0.15585 z m 0.92934,-0.0198 c 8.6e-4,-0.0462 0.0469,-0.15419 0.10231,-0.23991 0.0868,-0.13431 0.10094,-0.13157 0.10231,0.0198 8.6e-4,0.0966 -0.0452,0.20459 -0.10231,0.23991 -0.0571,0.0353 -0.10319,0.0264 -0.10231,-0.0198 z m 18.03399,-0.0989 c -0.099,-0.25796 0.0101,-0.29319 0.14242,-0.046 0.0638,0.11926 0.0726,0.2167 0.0195,0.2167 -0.053,0 -0.12592,-0.0768 -0.16195,-0.17072 z m -17.20437,-0.59551 c 0,-0.1115 0.30914,-0.68752 0.36899,-0.68752 0.0286,0 -0.0253,0.15196 -0.11978,0.33769 -0.19287,0.37923 -0.24921,0.45832 -0.24921,0.34983 z m -1.24523,-0.24036 c 8.6e-4,-0.0462 0.0469,-0.15419 0.10231,-0.23991 0.0868,-0.13431 0.10094,-0.13156 0.10231,0.0198 8.6e-4,0.0966 -0.0452,0.20459 -0.10231,0.23991 -0.0571,0.0353 -0.10318,0.0264 -0.10231,-0.0198 z m 18.40397,-0.52558 c -0.11338,-0.26495 -0.11082,-0.27106 0.0353,-0.084 0.0867,0.11093 0.15754,0.23951 0.15754,0.28573 0,0.15792 -0.0705,0.0842 -0.19282,-0.20169 z m -0.6384,-0.026 c 0,-0.0571 0.0468,-0.1039 0.1039,-0.1039 0.0571,0 0.1039,0.0467 0.1039,0.1039 0,0.0571 -0.0468,0.1039 -0.1039,0.1039 -0.0571,0 -0.1039,-0.0468 -0.1039,-0.1039 z m 0.0216,-0.92683 c -0.18333,-0.33348 -0.3326,-0.64714 -0.33172,-0.69703 8.6e-4,-0.0499 0.16906,0.20475 0.37374,0.56589 0.20468,0.36113 0.35396,0.6748 0.33172,0.69703 -0.0222,0.0222 -0.19041,-0.23242 -0.37374,-0.56589 z m -0.38528,0.40693 c -0.0353,-0.0571 -0.0147,-0.1039 0.0458,-0.1039 0.0605,0 0.11004,0.0468 0.11004,0.1039 0,0.0571 -0.0206,0.10391 -0.0458,0.10391 -0.0252,0 -0.0747,-0.0468 -0.11004,-0.10391 z m 6.49385,-0.35172 c 0,-0.3014 -0.0533,-0.3771 -0.37175,-0.52822 l -0.37176,-0.17642 0.34578,-0.18465 c 0.23824,-0.12722 0.35619,-0.27184 0.37925,-0.46499 0.04,-0.33531 0.24846,-0.30303 0.33171,0.0513 0.0326,0.13863 0.18581,0.31305 0.34055,0.3876 0.33853,0.16311 0.36215,0.30554 0.0582,0.35076 -0.24422,0.0363 -0.35607,0.19379 -0.44798,0.63064 -0.0844,0.40134 -0.26397,0.35639 -0.26397,-0.0661 z m 0.33768,-0.73915 c -0.0383,-0.15337 -0.36485,-0.12629 -0.41852,0.0347 -0.0317,0.095 0.0309,0.1277 0.19914,0.1039 0.13495,-0.0191 0.23367,-0.0815 0.21938,-0.13863 z m -23.40343,0.71855 c 4.8e-4,-0.11663 0.39267,-0.7706 0.46214,-0.7706 0.0275,0 -0.0504,0.17533 -0.1731,0.38963 -0.27479,0.47997 -0.28952,0.49938 -0.28904,0.38097 z m 15.84459,-0.66634 c -0.0353,-0.0571 -0.0147,-0.1039 0.0458,-0.1039 0.0605,0 0.11004,0.0468 0.11004,0.1039 0,0.0571 -0.0206,0.1039 -0.0458,0.1039 -0.0252,0 -0.0747,-0.0467 -0.11004,-0.1039 z m 0.53235,-0.3676 c -0.10027,-0.26128 -0.0707,-0.3287 0.0518,-0.11807 0.0607,0.1043 0.0884,0.21151 0.0616,0.23826 -0.0267,0.0267 -0.0778,-0.0274 -0.11343,-0.12019 z m -0.9999,-0.46024 c 0,-0.0553 0.0701,-0.0737 0.15585,-0.0409 0.0857,0.0329 0.15585,0.0782 0.15585,0.10064 0,0.0224 -0.0701,0.0409 -0.15585,0.0409 -0.0857,0 -0.15585,-0.0453 -0.15585,-0.10064 z m -17.0918,-0.54335 c -0.18984,-0.18563 -0.19313,-0.21397 -0.0381,-0.32773 0.0933,-0.0685 0.1913,-0.21687 0.2177,-0.32974 0.0476,-0.20334 0.0488,-0.20331 0.13556,0.002 0.0482,0.11429 0.16052,0.26242 0.24969,0.32918 0.0892,0.0668 0.13882,0.13739 0.11034,0.15696 -0.0285,0.0196 -0.1453,0.11125 -0.25959,0.20375 -0.19302,0.15622 -0.22258,0.15373 -0.41561,-0.035 z m 17.55508,0.11747 c -0.0377,-0.0609 -0.0462,-0.1331 -0.019,-0.16033 0.0272,-0.0272 0.0772,0.0226 0.11105,0.11081 0.0703,0.18308 0.0104,0.21529 -0.0921,0.0495 z m -0.87889,-0.3048 c 0,-0.19395 0.0277,-0.22166 0.12468,-0.12468 0.097,0.097 0.097,0.15239 0,0.24936 -0.097,0.097 -0.12468,0.0693 -0.12468,-0.12468 z m -13.60373,-0.052 c 0,-0.0571 0.0668,-0.22079 0.14848,-0.36365 0.0817,-0.14287 0.14849,-0.21301 0.14849,-0.15586 0,0.0571 -0.0668,0.22079 -0.14849,0.36366 -0.0817,0.14286 -0.14848,0.213 -0.14848,0.15585 z m 14.03621,-0.41996 c -0.17408,-0.38208 -0.14087,-0.46359 0.0474,-0.11625 0.0879,0.16221 0.14039,0.31437 0.11662,0.33812 -0.0238,0.0238 -0.0976,-0.0761 -0.16398,-0.22187 z m -0.83988,-0.31593 c 0.005,-0.12104 0.0296,-0.14566 0.0628,-0.0628 0.03,0.075 0.0263,0.16462 -0.008,0.19915 -0.0345,0.0345 -0.0591,-0.0268 -0.0546,-0.13637 z m -12.46456,-0.56157 c 0.12812,-0.22795 0.25333,-0.39405 0.27826,-0.36912 0.0502,0.0502 -0.38131,0.78356 -0.46106,0.78356 -0.0276,0 0.0547,-0.1865 0.1828,-0.41444 z m 12.91223,0.15144 c -0.0948,-0.14464 -0.14606,-0.28926 -0.11396,-0.32135 0.0321,-0.0321 0.13315,0.0862 0.22455,0.26299 0.20034,0.38741 0.12951,0.4248 -0.11059,0.0584 z m -1.07929,-0.3544 c 0,-0.0538 0.0468,-0.12667 0.10391,-0.16198 0.0571,-0.0353 0.1039,0.009 0.1039,0.0978 0,0.0891 -0.0468,0.16198 -0.1039,0.16198 -0.0571,0 -0.10391,-0.044 -0.10391,-0.0978 z m -11.42916,-0.59936 c 0,-0.0597 0.0818,-0.17266 0.18183,-0.2511 0.16819,-0.1319 0.17039,-0.12701 0.0294,0.0652 -0.0838,0.11429 -0.16566,0.22729 -0.18183,0.25109 -0.0162,0.0238 -0.0294,-0.006 -0.0294,-0.0652 z m 1.97413,-0.90026 c 0,-0.13911 0.41286,-0.88239 0.53052,-0.9551 0.0648,-0.0401 -0.013,0.15546 -0.17286,0.43453 -0.33787,0.58964 -0.35766,0.61844 -0.35766,0.52057 z m -0.95003,-1.2926 c -0.19024,-0.2156 -0.19668,-0.2371 -0.0289,-0.0964 0.29083,0.24384 0.51869,0.22792 0.71324,-0.0498 0.12132,-0.17321 0.16174,-0.18937 0.16174,-0.0647 0,0.0914 -0.0584,0.21147 -0.12988,0.26674 -0.29772,0.23037 -0.47596,0.21648 -0.71625,-0.0558 z m 1.88832,-0.27892 c 0,-0.0571 0.0453,-0.17404 0.10072,-0.25976 0.0554,-0.0857 0.10072,-0.10909 0.10072,-0.052 0,0.0571 -0.0453,0.17404 -0.10072,0.25975 -0.0554,0.0857 -0.10072,0.1091 -0.10072,0.052 z m -1.59271,-0.64869 c 0.0802,-0.21962 0.44661,-0.71005 0.44661,-0.59773 0,0.0951 -0.41507,0.77956 -0.47277,0.77956 -0.0221,0 -0.0104,-0.0818 0.0262,-0.18183 z m 0.6237,0.008 c -0.0744,-0.12042 0.099,-0.41629 0.19044,-0.32486 0.0369,0.0369 0.0225,0.14676 -0.0319,0.24411 -0.0545,0.0973 -0.12581,0.13368 -0.15852,0.0807 z m -1.37195,-0.13281 c -0.11429,-0.046 -0.23964,-0.0653 -0.27855,-0.043 -0.0389,0.0223 -0.10452,-0.014 -0.14578,-0.0808 -0.0545,-0.0881 0.0397,-0.10602 0.34323,-0.0653 0.23005,0.0309 0.48268,0.0153 0.56139,-0.0345 0.15728,-0.0996 0.0736,-0.12459 -0.33166,-0.099 -0.14684,0.009 -0.37952,-0.0742 -0.51707,-0.18563 -0.21831,-0.17678 -0.23435,-0.23363 -0.1263,-0.44745 0.0681,-0.13471 0.16821,-0.40858 0.22249,-0.60859 0.0797,-0.29375 0.0876,-0.23884 0.0408,0.28573 l -0.0579,0.64939 h 0.43041 c 0.37218,0 0.43041,-0.0304 0.43041,-0.22512 0,-0.12382 0.0305,-0.19461 0.0678,-0.15732 0.13069,0.13069 0.0477,0.71694 -0.12921,0.91238 -0.19647,0.21711 -0.21022,0.21978 -0.51005,0.0992 z m 0.0719,-0.89631 c -0.21086,-0.10735 -0.21816,-0.13036 -0.0606,-0.19084 0.18999,-0.0729 0.40121,0.0648 0.33797,0.22029 -0.0207,0.0509 -0.14555,0.0377 -0.27742,-0.0294 z m 0.29171,-0.40863 c 0,-0.0857 0.0468,-0.15585 0.1039,-0.15585 0.0571,0 0.1039,0.0701 0.1039,0.15585 0,0.0857 -0.0468,0.15585 -0.1039,0.15585 -0.0571,0 -0.1039,-0.0701 -0.1039,-0.15585 z m 14.67425,-0.0519 c -0.10519,-0.16844 -0.0814,-0.22693 0.16337,-0.4012 0.32444,-0.23103 0.6437,-0.13888 0.6437,0.18579 0,0.24875 -0.27215,0.48934 -0.33665,0.29763 -0.0353,-0.10507 -0.078,-0.10716 -0.19621,-0.01 -0.12101,0.0998 -0.17556,0.0854 -0.27421,-0.0726 z m 0.59927,-0.14976 c 0,-0.0252 -0.0468,-0.0747 -0.1039,-0.11004 -0.0571,-0.0353 -0.1039,-0.0147 -0.1039,0.0458 0,0.0605 0.0468,0.11003 0.1039,0.11003 0.0571,0 0.1039,-0.0206 0.1039,-0.0458 z m -12.98769,0.0458 c 0,-0.0571 0.0468,-0.1039 0.1039,-0.1039 0.0571,0 0.1039,0.0467 0.1039,0.1039 0,0.0571 -0.0467,0.1039 -0.1039,0.1039 -0.0571,0 -0.1039,-0.0468 -0.1039,-0.1039 z m 0.72731,-0.51341 c 0,-0.0605 -0.0701,-0.11004 -0.15585,-0.11004 -0.0857,0 -0.15585,-0.0468 -0.15585,-0.1039 0,-0.14329 0.13239,-0.13 0.35954,0.0361 0.13265,0.097 0.15471,0.1627 0.0718,0.21394 -0.0658,0.0407 -0.11964,0.0244 -0.11965,-0.0361 z m 0.51951,-0.31772 c 0,-0.0571 0.0468,-0.1039 0.1039,-0.1039 0.0571,0 0.1039,0.0468 0.1039,0.1039 0,0.0571 -0.0468,0.10391 -0.1039,0.10391 -0.0571,0 -0.1039,-0.0468 -0.1039,-0.10391 z m -8.34676,-2.25146 c -0.0381,-0.0381 -0.0693,-0.15937 -0.0693,-0.26948 0,-0.11284 -0.0907,-0.22393 -0.2078,-0.25456 -0.24355,-0.0637 -0.27971,-0.2379 -0.0494,-0.2379 0.0871,0 0.20287,-0.11689 0.25718,-0.25976 0.12004,-0.31573 0.31171,-0.34169 0.31171,-0.0422 0,0.13015 0.0835,0.23936 0.2078,0.27187 0.11429,0.0299 0.20781,0.0844 0.20781,0.12114 0,0.0368 -0.0935,0.12518 -0.20781,0.19656 -0.11429,0.0714 -0.2078,0.22289 -0.2078,0.3367 0,0.20623 -0.11089,0.2692 -0.24244,0.13765 z m 18.06614,-1.51135 c -0.0425,-0.1551 -0.17477,-0.31297 -0.29404,-0.35082 -0.20975,-0.0666 -0.20772,-0.0755 0.0623,-0.27215 0.15352,-0.11183 0.28208,-0.28124 0.28571,-0.37648 0.005,-0.12578 0.0316,-0.11106 0.098,0.0538 0.0503,0.12484 0.19314,0.28141 0.31744,0.34793 l 0.22598,0.12095 -0.24161,0.12045 c -0.13289,0.0663 -0.27199,0.23697 -0.30911,0.37938 l -0.0675,0.25893 z"
       style="fill:#d2b964;fill-opacity:0.8;stroke-width:0.613592"
       id="path1-91" /></g></svg>
